<?xml version="1.0" encoding="utf-8" standalone="no"?>
<!DOCTYPE svg PUBLIC "-//W3C//DTD SVG 1.1//EN"
  "http://www.w3.org/Graphics/SVG/1.1/DTD/svg11.dtd">
<svg xmlns:xlink="http://www.w3.org/1999/xlink" width="568.8pt" height="568.8pt" viewBox="0 0 568.8 568.8" xmlns="http://www.w3.org/2000/svg" version="1.1">
 <metadata>
  <rdf:RDF xmlns:dc="http://purl.org/dc/elements/1.1/" xmlns:cc="http://creativecommons.org/ns#" xmlns:rdf="http://www.w3.org/1999/02/22-rdf-syntax-ns#">
   <cc:Work>
    <dc:type rdf:resource="http://purl.org/dc/dcmitype/StillImage"/>
    <dc:date>2025-12-22T12:26:03.366443</dc:date>
    <dc:format>image/svg+xml</dc:format>
    <dc:creator>
     <cc:Agent>
      <dc:title>Matplotlib v3.9.2, https://matplotlib.org/</dc:title>
     </cc:Agent>
    </dc:creator>
   </cc:Work>
  </rdf:RDF>
 </metadata>
 <defs>
  <style type="text/css">*{stroke-linejoin: round; stroke-linecap: butt}</style>
 </defs>
 <g id="figure_1">
  <g id="patch_1">
   <path d="M 0 568.8 
L 568.8 568.8 
L 568.8 0 
L 0 0 
L 0 568.8 
z
" style="fill: none"/>
  </g>
  <g id="patch_2">
   <path d="M 7.2 561.6 
L 561.6 561.6 
L 561.6 7.2 
L 7.2 7.2 
L 7.2 561.6 
z
" style="fill: none"/>
  </g>
  <g id="axes_1">
   <g id="Poly3DCollection_1">
    <path d="M 83.139223 290.912913 
L 82.184812 253.333548 
L 403.438616 211.024595 
L 402.950989 247.305538 
L 83.139223 290.912913 
z
" clip-path="url(#p57f657bffc)" style="fill: none"/>
    <path d="M 108.221096 372.047979 
L 83.139223 290.912913 
L 402.950989 247.305538 
L 431.62185 324.565643 
L 108.221096 372.047979 
z
" clip-path="url(#p57f657bffc)" style="fill: none"/>
    <path d="M 124.582874 389.610352 
L 108.221096 372.047979 
L 431.62185 324.565643 
L 451.914164 340.740183 
L 124.582874 389.610352 
z
" clip-path="url(#p57f657bffc)" style="fill: none"/>
    <path d="M 82.184812 253.333548 
L 120.567315 194.703805 
L 455.595281 152.806468 
L 403.438616 211.024595 
L 82.184812 253.333548 
z
" clip-path="url(#p57f657bffc)" style="fill: none"/>
    <path d="M 166.158939 336.403923 
L 124.582874 389.610352 
L 451.914164 340.740183 
L 507.777298 287.402932 
L 166.158939 336.403923 
z
" clip-path="url(#p57f657bffc)" style="fill: none"/>
    <path d="M 120.567315 194.703805 
L 137.769902 210.233755 
L 477.014178 167.063774 
L 455.595281 152.806468 
L 120.567315 194.703805 
z
" clip-path="url(#p57f657bffc)" style="fill: none"/>
    <path d="M 137.769902 210.233755 
L 165.536276 295.92397 
L 508.800658 248.423368 
L 477.014178 167.063774 
L 137.769902 210.233755 
z
" clip-path="url(#p57f657bffc)" style="fill: none"/>
    <path d="M 165.536276 295.92397 
L 166.158939 336.403923 
L 507.777298 287.402932 
L 508.800658 248.423368 
L 165.536276 295.92397 
z
" clip-path="url(#p57f657bffc)" style="fill: none"/>
   </g>
   <g id="Poly3DCollection_2">
    <defs>
     <path id="mf1a9386788" d="M 124.582874 -179.189648 
L 108.221096 -196.752021 
L 83.139223 -277.887087 
L 82.184812 -315.466452 
L 120.567315 -374.096195 
L 137.769902 -358.566245 
L 165.536276 -272.87603 
L 166.158939 -232.396077 
z
" style="stroke: #000080; stroke-opacity: 0.3"/>
    </defs>
    <g clip-path="url(#p57f657bffc)">
     <use xlink:href="#mf1a9386788" x="0" y="568.8" style="fill: #0000ff; fill-opacity: 0.3; stroke: #000080; stroke-opacity: 0.3"/>
    </g>
   </g>
   <g id="Poly3DCollection_3">
    <defs>
     <path id="mff685027a9" d="M 125.378994 -164.472443 
L 76.781221 -271.784932 
L 123.098844 -372.912189 
L 174.090374 -257.057895 
z
" style="stroke: #800000; stroke-opacity: 0.2"/>
    </defs>
    <g clip-path="url(#p57f657bffc)">
     <use xlink:href="#mff685027a9" x="0" y="568.8" style="fill: #ff0000; fill-opacity: 0.2; stroke: #800000; stroke-opacity: 0.2"/>
    </g>
   </g>
  </g>
 </g>
 <defs>
  <clipPath id="p57f657bffc">
   <rect x="7.2" y="7.2" width="554.4" height="554.4"/>
  </clipPath>
 </defs>
</svg>
