<?xml version="1.0" encoding="utf-8" standalone="no"?>
<!DOCTYPE svg PUBLIC "-//W3C//DTD SVG 1.1//EN"
  "http://www.w3.org/Graphics/SVG/1.1/DTD/svg11.dtd">
<svg xmlns:xlink="http://www.w3.org/1999/xlink" width="460.8pt" height="457.92pt" viewBox="0 0 460.8 457.92" xmlns="http://www.w3.org/2000/svg" version="1.1">
 <metadata>
  <rdf:RDF xmlns:dc="http://purl.org/dc/elements/1.1/" xmlns:cc="http://creativecommons.org/ns#" xmlns:rdf="http://www.w3.org/1999/02/22-rdf-syntax-ns#">
   <cc:Work>
    <dc:type rdf:resource="http://purl.org/dc/dcmitype/StillImage"/>
    <dc:date>2025-10-01T14:30:41.305413</dc:date>
    <dc:format>image/svg+xml</dc:format>
    <dc:creator>
     <cc:Agent>
      <dc:title>Matplotlib v3.9.2, https://matplotlib.org/</dc:title>
     </cc:Agent>
    </dc:creator>
   </cc:Work>
  </rdf:RDF>
 </metadata>
 <defs>
  <style type="text/css">*{stroke-linejoin: round; stroke-linecap: butt}</style>
 </defs>
 <g id="figure_1">
  <g id="patch_1">
   <path d="M 0 457.92 
L 460.8 457.92 
L 460.8 0 
L 0 0 
z
" style="fill: #ffffff"/>
  </g>
  <g id="axes_1">
   <g id="patch_2">
    <path d="M 7.2 450.72 
L 453.6 450.72 
L 453.6 7.2 
L 7.2 7.2 
z
" style="fill: #ffffff"/>
   </g>
   <g id="patch_3">
    <path d="M 151.486883 307.364 
C 161.950885 317.760492 180.302501 319.47143 202.5 312.12 
C 224.697499 304.76857 248.928555 288.954984 269.856558 268.162 
C 290.784562 247.369016 306.700834 223.29429 314.1 201.24 
C 321.499166 179.18571 319.777118 160.952492 309.313117 150.556 
C 298.849115 140.159508 280.497499 138.44857 258.3 145.8 
C 236.102501 153.15143 211.871445 168.965016 190.943442 189.758 
C 170.015438 210.550984 154.099166 234.62571 146.7 256.68 
C 139.300834 278.73429 141.022882 296.967508 151.486883 307.364 
z
" clip-path="url(#p8951b40dc9)" style="fill: #0000ff; opacity: 0.3; stroke: #0000ff; stroke-linejoin: miter"/>
   </g>
   <g id="patch_4">
    <path d="M 139.758978 284.569698 
L 167.663089 314.779301 
L 276.300448 263.514814 
L 321.74211 167.943053 
L 290.774656 138.376648 
L 178.525732 198.161224 
z
" clip-path="url(#p8951b40dc9)" style="fill: #ff0000; opacity: 0.2; stroke: #ff0000; stroke-linejoin: miter"/>
   </g>
   <g id="matplotlib.axis_1"/>
   <g id="matplotlib.axis_2"/>
  </g>
 </g>
 <defs>
  <clipPath id="p8951b40dc9">
   <rect x="7.2" y="7.2" width="446.4" height="443.52"/>
  </clipPath>
 </defs>
</svg>
