<?xml version="1.0" encoding="utf-8" standalone="no"?>
<!DOCTYPE svg PUBLIC "-//W3C//DTD SVG 1.1//EN"
  "http://www.w3.org/Graphics/SVG/1.1/DTD/svg11.dtd">
<svg xmlns:xlink="http://www.w3.org/1999/xlink" width="568.8pt" height="568.8pt" viewBox="0 0 568.8 568.8" xmlns="http://www.w3.org/2000/svg" version="1.1">
 <metadata>
  <rdf:RDF xmlns:dc="http://purl.org/dc/elements/1.1/" xmlns:cc="http://creativecommons.org/ns#" xmlns:rdf="http://www.w3.org/1999/02/22-rdf-syntax-ns#">
   <cc:Work>
    <dc:type rdf:resource="http://purl.org/dc/dcmitype/StillImage"/>
    <dc:date>2025-12-22T12:42:49.386840</dc:date>
    <dc:format>image/svg+xml</dc:format>
    <dc:creator>
     <cc:Agent>
      <dc:title>Matplotlib v3.9.2, https://matplotlib.org/</dc:title>
     </cc:Agent>
    </dc:creator>
   </cc:Work>
  </rdf:RDF>
 </metadata>
 <defs>
  <style type="text/css">*{stroke-linejoin: round; stroke-linecap: butt}</style>
 </defs>
 <g id="figure_1">
  <g id="patch_1">
   <path d="M 0 568.8 
L 568.8 568.8 
L 568.8 0 
L 0 0 
L 0 568.8 
z
" style="fill: none"/>
  </g>
  <g id="patch_2">
   <path d="M 7.2 561.6 
L 561.6 561.6 
L 561.6 7.2 
L 7.2 7.2 
L 7.2 561.6 
z
" style="fill: none"/>
  </g>
  <g id="axes_1">
   <g id="Poly3DCollection_1">
    <path d="M 73.09189 213.908107 
L 73.102923 208.379253 
L 387.738482 211.481815 
L 387.724976 216.760331 
L 73.09189 213.908107 
z
" clip-path="url(#pa3dccf8527)" style="fill: none"/>
    <path d="M 73.279979 219.680401 
L 73.09189 213.908107 
L 387.724976 216.760331 
L 387.9552 222.27171 
L 73.279979 219.680401 
z
" clip-path="url(#pa3dccf8527)" style="fill: none"/>
    <path d="M 73.102923 208.379253 
L 73.313047 203.113151 
L 387.995677 206.454731 
L 387.738482 211.481815 
L 73.102923 208.379253 
z
" clip-path="url(#pa3dccf8527)" style="fill: none"/>
    <path d="M 73.666634 225.676089 
L 73.279979 219.680401 
L 387.9552 222.27171 
L 388.428462 227.996677 
L 73.666634 225.676089 
z
" clip-path="url(#pa3dccf8527)" style="fill: none"/>
    <path d="M 73.313047 203.113151 
L 73.72164 198.128349 
L 388.495788 201.696898 
L 387.995677 206.454731 
L 73.313047 203.113151 
z
" clip-path="url(#pa3dccf8527)" style="fill: none"/>
    <path d="M 74.25071 231.874435 
L 73.666634 225.676089 
L 388.428462 227.996677 
L 389.143336 233.915284 
L 74.25071 231.874435 
z
" clip-path="url(#pa3dccf8527)" style="fill: none"/>
    <path d="M 73.72164 198.128349 
L 74.327489 193.442594 
L 389.237307 197.225356 
L 388.495788 201.696898 
L 73.72164 198.128349 
z
" clip-path="url(#pa3dccf8527)" style="fill: none"/>
    <path d="M 75.030469 238.25404 
L 74.25071 231.874435 
L 389.143336 233.915284 
L 390.097663 240.006944 
L 75.030469 238.25404 
z
" clip-path="url(#pa3dccf8527)" style="fill: none"/>
    <path d="M 74.327489 193.442594 
L 75.128794 189.072792 
L 390.217995 193.056327 
L 389.237307 197.225356 
L 74.327489 193.442594 
z
" clip-path="url(#pa3dccf8527)" style="fill: none"/>
    <path d="M 76.003584 244.792881 
L 75.030469 238.25404 
L 390.097663 240.006944 
L 391.288547 246.250469 
L 76.003584 244.792881 
z
" clip-path="url(#pa3dccf8527)" style="fill: none"/>
    <path d="M 75.128794 189.072792 
L 76.123159 185.034973 
L 391.434875 189.205171 
L 390.217995 193.056327 
L 75.128794 189.072792 
z
" clip-path="url(#pa3dccf8527)" style="fill: none"/>
    <path d="M 77.167133 251.468349 
L 76.003584 244.792881 
L 391.288547 246.250469 
L 392.712357 252.62411 
L 77.167133 251.468349 
z
" clip-path="url(#pa3dccf8527)" style="fill: none"/>
    <path d="M 76.123159 185.034973 
L 77.307598 181.344247 
L 392.884233 185.686355 
L 391.434875 189.205171 
L 76.123159 185.034973 
z
" clip-path="url(#pa3dccf8527)" style="fill: none"/>
    <path d="M 78.517598 258.257282 
L 77.167133 251.468349 
L 392.712357 252.62411 
L 394.364725 259.105588 
L 78.517598 258.257282 
z
" clip-path="url(#pa3dccf8527)" style="fill: none"/>
    <path d="M 77.307598 181.344247 
L 78.678527 178.014762 
L 394.56162 182.513402 
L 392.884233 185.686355 
L 77.307598 181.344247 
z
" clip-path="url(#pa3dccf8527)" style="fill: none"/>
    <path d="M 80.050865 265.136008 
L 78.517598 258.257282 
L 394.364725 259.105588 
L 396.240543 265.672144 
L 80.050865 265.136008 
z
" clip-path="url(#pa3dccf8527)" style="fill: none"/>
    <path d="M 78.678527 178.014762 
L 80.231767 175.059661 
L 396.461844 179.698856 
L 394.56162 182.513402 
L 78.678527 178.014762 
z
" clip-path="url(#pa3dccf8527)" style="fill: none"/>
    <path d="M 81.762222 272.080386 
L 80.050865 265.136008 
L 396.240543 265.672144 
L 398.333961 272.300575 
L 81.762222 272.080386 
z
" clip-path="url(#pa3dccf8527)" style="fill: none"/>
    <path d="M 80.231767 175.059661 
L 81.962536 172.491037 
L 398.578976 177.254231 
L 396.461844 179.698856 
L 80.231767 175.059661 
z
" clip-path="url(#pa3dccf8527)" style="fill: none"/>
    <path d="M 83.646356 279.06585 
L 81.762222 272.080386 
L 398.333961 272.300575 
L 400.638392 278.96728 
L 83.646356 279.06585 
z
" clip-path="url(#pa3dccf8527)" style="fill: none"/>
    <path d="M 81.962536 172.491037 
L 83.865457 170.31988 
L 400.906346 175.189969 
L 398.578976 177.254231 
L 81.962536 172.491037 
z
" clip-path="url(#pa3dccf8527)" style="fill: none"/>
    <path d="M 85.697352 286.067458 
L 83.646356 279.06585 
L 400.638392 278.96728 
L 403.146508 285.648311 
L 85.697352 286.067458 
z
" clip-path="url(#pa3dccf8527)" style="fill: none"/>
    <path d="M 83.865457 170.31988 
L 85.934548 168.556031 
L 403.436542 173.51539 
L 400.906346 175.189969 
L 83.865457 170.31988 
z
" clip-path="url(#pa3dccf8527)" style="fill: none"/>
    <path d="M 87.908695 293.059942 
L 85.697352 286.067458 
L 403.146508 285.648311 
L 405.850241 292.319426 
L 87.908695 293.059942 
z
" clip-path="url(#pa3dccf8527)" style="fill: none"/>
    <path d="M 85.934548 168.556031 
L 88.163227 167.208128 
L 406.161417 172.238645 
L 403.436542 173.51539 
L 85.934548 168.556031 
z
" clip-path="url(#pa3dccf8527)" style="fill: none"/>
    <path d="M 90.273271 300.017767 
L 87.908695 293.059942 
L 405.850241 292.319426 
L 408.740789 298.956139 
L 90.273271 300.017767 
z
" clip-path="url(#pa3dccf8527)" style="fill: none"/>
    <path d="M 88.163227 167.208128 
L 90.544314 166.283553 
L 409.072087 171.366662 
L 406.161417 172.238645 
L 88.163227 167.208128 
z
" clip-path="url(#pa3dccf8527)" style="fill: none"/>
    <path d="M 92.783366 306.915187 
L 90.273271 300.017767 
L 408.740789 298.956139 
L 411.80862 305.533787 
L 92.783366 306.915187 
z
" clip-path="url(#pa3dccf8527)" style="fill: none"/>
    <path d="M 90.544314 166.283553 
L 93.070029 165.788379 
L 412.158939 170.9051 
L 409.072087 171.366662 
L 90.544314 166.283553 
z
" clip-path="url(#pa3dccf8527)" style="fill: none"/>
    <path d="M 95.430676 313.726319 
L 92.783366 306.915187 
L 411.80862 305.533787 
L 415.043477 312.027591 
L 95.430676 313.726319 
z
" clip-path="url(#pa3dccf8527)" style="fill: none"/>
    <path d="M 93.070029 165.788379 
L 95.732003 165.727311 
L 415.411637 170.858293 
L 412.158939 170.9051 
L 93.070029 165.788379 
z
" clip-path="url(#pa3dccf8527)" style="fill: none"/>
    <path d="M 98.206308 320.425205 
L 95.430676 313.726319 
L 415.043477 312.027591 
L 418.43439 318.412732 
L 98.206308 320.425205 
z
" clip-path="url(#pa3dccf8527)" style="fill: none"/>
    <path d="M 95.732003 165.727311 
L 98.521278 166.103634 
L 418.819132 171.229201 
L 415.411637 170.858293 
L 95.732003 165.727311 
z
" clip-path="url(#pa3dccf8527)" style="fill: none"/>
    <path d="M 101.100792 326.985898 
L 98.206308 320.425205 
L 418.43439 318.412732 
L 421.969688 324.664416 
L 101.100792 326.985898 
z
" clip-path="url(#pa3dccf8527)" style="fill: none"/>
    <path d="M 98.521278 166.103634 
L 101.42832 166.919153 
L 422.369677 172.01936 
L 418.819132 171.229201 
L 98.521278 166.103634 
z
" clip-path="url(#pa3dccf8527)" style="fill: none"/>
    <path d="M 101.100792 326.985898 
L 101.100792 326.985898 
L 421.969688 324.664416 
L 421.969688 324.664416 
L 101.100792 326.985898 
z
" clip-path="url(#pa3dccf8527)" style="fill: none"/>
    <path d="M 104.104089 333.382539 
L 101.100792 326.985898 
L 421.969688 324.664416 
L 425.637014 330.757969 
L 104.104089 333.382539 
z
" clip-path="url(#pa3dccf8527)" style="fill: none"/>
    <path d="M 101.42832 166.919153 
L 104.443031 168.174146 
L 426.050839 173.22883 
L 422.369677 172.01936 
L 101.42832 166.919153 
z
" clip-path="url(#pa3dccf8527)" style="fill: none"/>
    <path d="M 107.205611 339.589451 
L 104.104089 333.382539 
L 425.637014 330.757969 
L 429.423345 336.66891 
L 107.205611 339.589451 
z
" clip-path="url(#pa3dccf8527)" style="fill: none"/>
    <path d="M 104.443031 168.174146 
L 107.554759 169.867303 
L 429.849524 174.85615 
L 426.050839 173.22883 
L 104.443031 168.174146 
z
" clip-path="url(#pa3dccf8527)" style="fill: none"/>
    <path d="M 110.394234 345.581233 
L 107.205611 339.589451 
L 429.423345 336.66891 
L 433.315016 342.373053 
L 110.394234 345.581233 
z
" clip-path="url(#pa3dccf8527)" style="fill: none"/>
    <path d="M 107.554759 169.867303 
L 110.752324 171.995682 
L 433.751996 176.898293 
L 429.849524 174.85615 
L 107.554759 169.867303 
z
" clip-path="url(#pa3dccf8527)" style="fill: none"/>
    <path d="M 113.658321 351.332862 
L 110.394234 345.581233 
L 433.315016 342.373053 
L 437.297748 347.846601 
L 113.658321 351.332862 
z
" clip-path="url(#pa3dccf8527)" style="fill: none"/>
    <path d="M 110.752324 171.995682 
L 114.024033 174.554659 
L 437.743912 179.350623 
L 433.751996 176.898293 
L 110.752324 171.995682 
z
" clip-path="url(#pa3dccf8527)" style="fill: none"/>
    <path d="M 116.985749 356.819799 
L 113.658321 351.332862 
L 437.297748 347.846601 
L 441.356682 353.066247 
L 116.985749 356.819799 
z
" clip-path="url(#pa3dccf8527)" style="fill: none"/>
    <path d="M 114.024033 174.554659 
L 117.357712 177.537888 
L 441.81035 182.206859 
L 437.743912 179.350623 
L 114.024033 174.554659 
z
" clip-path="url(#pa3dccf8527)" style="fill: none"/>
    <path d="M 120.363938 362.01811 
L 116.985749 356.819799 
L 441.356682 353.066247 
L 445.476416 358.009285 
L 120.363938 362.01811 
z
" clip-path="url(#pa3dccf8527)" style="fill: none"/>
    <path d="M 117.357712 177.537888 
L 120.740731 180.937261 
L 445.93585 185.459045 
L 441.81035 182.206859 
L 117.357712 177.537888 
z
" clip-path="url(#pa3dccf8527)" style="fill: none"/>
    <path d="M 123.779885 366.904574 
L 120.363938 362.01811 
L 445.476416 358.009285 
L 449.641052 362.653723 
L 123.779885 366.904574 
z
" clip-path="url(#pa3dccf8527)" style="fill: none"/>
    <path d="M 120.740731 180.937261 
L 124.160044 184.742883 
L 450.104461 189.097524 
L 445.93585 185.459045 
L 120.740731 180.937261 
z
" clip-path="url(#pa3dccf8527)" style="fill: none"/>
    <path d="M 127.220207 371.456816 
L 123.779885 366.904574 
L 449.641052 362.653723 
L 453.834239 366.978396 
L 127.220207 371.456816 
z
" clip-path="url(#pa3dccf8527)" style="fill: none"/>
    <path d="M 124.160044 184.742883 
L 127.602228 188.943046 
L 454.299788 193.110919 
L 450.104461 189.097524 
L 124.160044 184.742883 
z
" clip-path="url(#pa3dccf8527)" style="fill: none"/>
    <path d="M 130.67118 375.653431 
L 127.220207 371.456816 
L 453.834239 366.978396 
L 458.039237 370.963087 
L 130.67118 375.653431 
z
" clip-path="url(#pa3dccf8527)" style="fill: none"/>
    <path d="M 127.602228 188.943046 
L 131.053524 193.524213 
L 458.505049 197.486127 
L 454.299788 193.110919 
L 127.602228 188.943046 
z
" clip-path="url(#pa3dccf8527)" style="fill: none"/>
    <path d="M 134.118796 379.474112 
L 130.67118 375.653431 
L 458.039237 370.963087 
L 462.238968 374.588652 
L 134.118796 379.474112 
z
" clip-path="url(#pa3dccf8527)" style="fill: none"/>
    <path d="M 131.053524 193.524213 
L 134.499895 198.471019 
L 462.703134 202.208315 
L 458.505049 197.486127 
L 131.053524 193.524213 
z
" clip-path="url(#pa3dccf8527)" style="fill: none"/>
    <path d="M 137.54881 382.899788 
L 134.118796 379.474112 
L 462.238968 374.588652 
L 466.416095 377.837139 
L 137.54881 382.899788 
z
" clip-path="url(#pa3dccf8527)" style="fill: none"/>
    <path d="M 134.499895 198.471019 
L 137.927074 203.766277 
L 466.876681 207.260933 
L 462.703134 202.208315 
L 134.499895 198.471019 
z
" clip-path="url(#pa3dccf8527)" style="fill: none"/>
    <path d="M 140.946803 385.912752 
L 137.54881 382.899788 
L 466.416095 377.837139 
L 470.553083 380.691914 
L 140.946803 385.912752 
z
" clip-path="url(#pa3dccf8527)" style="fill: none"/>
    <path d="M 137.927074 203.766277 
L 141.320628 209.390995 
L 471.008138 212.625737 
L 466.876681 207.260933 
L 137.927074 203.766277 
z
" clip-path="url(#pa3dccf8527)" style="fill: none"/>
    <path d="M 144.298249 388.496798 
L 140.946803 385.912752 
L 470.553083 380.691914 
L 474.632285 383.137785 
L 144.298249 388.496798 
z
" clip-path="url(#pa3dccf8527)" style="fill: none"/>
    <path d="M 141.320628 209.390995 
L 144.666022 215.324407 
L 475.079851 218.282818 
L 471.008138 212.625737 
L 141.320628 209.390995 
z
" clip-path="url(#pa3dccf8527)" style="fill: none"/>
    <path d="M 147.58858 390.63735 
L 144.298249 388.496798 
L 474.632285 383.137785 
L 478.636026 385.161122 
L 147.58858 390.63735 
z
" clip-path="url(#pa3dccf8527)" style="fill: none"/>
    <path d="M 144.666022 215.324407 
L 147.948687 221.544024 
L 479.074147 224.210653 
L 475.079851 218.282818 
L 144.666022 215.324407 
z
" clip-path="url(#pa3dccf8527)" style="fill: none"/>
    <path d="M 150.803262 392.32159 
L 147.58858 390.63735 
L 478.636026 385.161122 
L 482.546686 386.749975 
L 150.803262 392.32159 
z
" clip-path="url(#pa3dccf8527)" style="fill: none"/>
    <path d="M 147.948687 221.544024 
L 151.154099 228.025688 
L 482.973417 230.38616 
L 479.074147 224.210653 
L 147.948687 221.544024 
z
" clip-path="url(#pa3dccf8527)" style="fill: none"/>
    <path d="M 153.927872 393.538579 
L 150.803262 392.32159 
L 482.546686 386.749975 
L 486.346798 387.894182 
L 153.927872 393.538579 
z
" clip-path="url(#pa3dccf8527)" style="fill: none"/>
    <path d="M 151.154099 228.025688 
L 154.26785 234.743652 
L 486.760218 236.784776 
L 482.973417 230.38616 
L 151.154099 228.025688 
z
" clip-path="url(#pa3dccf8527)" style="fill: none"/>
    <path d="M 156.948177 394.279375 
L 153.927872 393.538579 
L 486.346798 387.894182 
L 490.019143 388.585481 
L 156.948177 394.279375 
z
" clip-path="url(#pa3dccf8527)" style="fill: none"/>
    <path d="M 154.26785 234.743652 
L 157.275736 241.670667 
L 490.417363 243.380544 
L 486.760218 236.784776 
L 154.26785 234.743652 
z
" clip-path="url(#pa3dccf8527)" style="fill: none"/>
    <path d="M 159.850219 394.537137 
L 156.948177 394.279375 
L 490.019143 388.585481 
L 493.546848 388.817602 
L 159.850219 394.537137 
z
" clip-path="url(#pa3dccf8527)" style="fill: none"/>
    <path d="M 157.275736 241.670667 
L 160.163833 248.778091 
L 493.928026 250.14621 
L 490.417363 243.380544 
L 157.275736 241.670667 
z
" clip-path="url(#pa3dccf8527)" style="fill: none"/>
    <path d="M 162.6204 394.307225 
L 159.850219 394.537137 
L 493.546848 388.817602 
L 496.913493 388.586357 
L 162.6204 394.307225 
z
" clip-path="url(#pa3dccf8527)" style="fill: none"/>
    <path d="M 160.163833 248.778091 
L 162.918589 256.036005 
L 497.275841 257.053344 
L 493.928026 250.14621 
L 160.163833 248.778091 
z
" clip-path="url(#pa3dccf8527)" style="fill: none"/>
    <path d="M 165.24557 393.58728 
L 162.6204 394.307225 
L 496.913493 388.586357 
L 500.103206 387.889712 
L 165.24557 393.58728 
z
" clip-path="url(#pa3dccf8527)" style="fill: none"/>
    <path d="M 162.918589 256.036005 
L 165.526908 263.413358 
L 500.445006 264.072467 
L 497.275841 257.053344 
L 162.918589 256.036005 
z
" clip-path="url(#pa3dccf8527)" style="fill: none"/>
    <path d="M 167.713111 392.377297 
L 165.24557 393.58728 
L 500.103206 387.889712 
L 503.100775 386.727857 
L 167.713111 392.377297 
z
" clip-path="url(#pa3dccf8527)" style="fill: none"/>
    <path d="M 165.526908 263.413358 
L 167.976236 270.878109 
L 503.420384 271.173193 
L 500.445006 264.072467 
L 165.526908 263.413358 
z
" clip-path="url(#pa3dccf8527)" style="fill: none"/>
    <path d="M 170.011023 390.679681 
L 167.713111 392.377297 
L 503.100775 386.727857 
L 505.891741 385.103246 
L 170.011023 390.679681 
z
" clip-path="url(#pa3dccf8527)" style="fill: none"/>
    <path d="M 167.976236 270.878109 
L 170.254649 278.397397 
L 506.18761 278.324386 
L 503.420384 271.173193 
L 167.976236 270.878109 
z
" clip-path="url(#pa3dccf8527)" style="fill: none"/>
    <path d="M 172.128013 388.499282 
L 170.011023 390.679681 
L 505.891741 385.103246 
L 508.462506 383.020635 
L 172.128013 388.499282 
z
" clip-path="url(#pa3dccf8527)" style="fill: none"/>
    <path d="M 170.254649 278.397397 
L 172.350935 285.937716 
L 508.733185 285.494324 
L 506.18761 278.324386 
L 170.254649 278.397397 
z
" clip-path="url(#pa3dccf8527)" style="fill: none"/>
    <path d="M 174.053571 385.843418 
L 172.128013 388.499282 
L 508.462506 383.020635 
L 510.800424 380.4871 
L 174.053571 385.843418 
z
" clip-path="url(#pa3dccf8527)" style="fill: none"/>
    <path d="M 172.350935 285.937716 
L 174.254677 293.465104 
L 511.044575 292.650873 
L 508.733185 285.494324 
L 172.350935 285.937716 
z
" clip-path="url(#pa3dccf8527)" style="fill: none"/>
    <path d="M 175.778052 382.721873 
L 174.053571 385.843418 
L 510.800424 380.4871 
L 512.893895 377.512028 
L 175.778052 382.721873 
z
" clip-path="url(#pa3dccf8527)" style="fill: none"/>
    <path d="M 174.254677 293.465104 
L 175.956329 300.945338 
L 513.110302 299.761677 
L 511.044575 292.650873 
L 174.254677 293.465104 
z
" clip-path="url(#pa3dccf8527)" style="fill: none"/>
    <path d="M 177.292748 379.146885 
L 175.778052 382.721873 
L 512.893895 377.512028 
L 514.732452 374.107107 
L 177.292748 379.146885 
z
" clip-path="url(#pa3dccf8527)" style="fill: none"/>
    <path d="M 175.956329 300.945338 
L 177.447293 308.344143 
L 514.920028 306.794343 
L 513.110302 299.761677 
L 175.956329 300.945338 
z
" clip-path="url(#pa3dccf8527)" style="fill: none"/>
    <path d="M 178.589956 375.133096 
L 177.292748 379.146885 
L 514.732452 374.107107 
L 516.30684 370.286279 
L 178.589956 375.133096 
z
" clip-path="url(#pa3dccf8527)" style="fill: none"/>
    <path d="M 177.447293 308.344143 
L 178.719979 315.6274 
L 516.464637 313.716641 
L 514.920028 306.794343 
L 177.447293 308.344143 
z
" clip-path="url(#pa3dccf8527)" style="fill: none"/>
    <path d="M 179.663035 370.697502 
L 178.589956 375.133096 
L 516.30684 370.286279 
L 517.609085 366.065688 
L 179.663035 370.697502 
z
" clip-path="url(#pa3dccf8527)" style="fill: none"/>
    <path d="M 178.719979 315.6274 
L 179.76787 322.76136 
L 517.736302 320.4967 
L 516.464637 313.716641 
L 178.719979 315.6274 
z
" clip-path="url(#pa3dccf8527)" style="fill: none"/>
    <path d="M 180.506468 365.859368 
L 179.663035 370.697502 
L 517.609085 366.065688 
L 518.632561 361.463605 
L 180.506468 365.859368 
z
" clip-path="url(#pa3dccf8527)" style="fill: none"/>
    <path d="M 179.76787 322.76136 
L 180.585573 329.712859 
L 518.728548 327.103211 
L 517.736302 320.4967 
L 179.76787 322.76136 
z
" clip-path="url(#pa3dccf8527)" style="fill: none"/>
    <path d="M 181.115896 360.640128 
L 180.506468 365.859368 
L 518.632561 361.463605 
L 519.372037 356.500327 
L 181.115896 360.640128 
z
" clip-path="url(#pa3dccf8527)" style="fill: none"/>
    <path d="M 180.585573 329.712859 
L 181.168862 336.449531 
L 519.436303 333.505618 
L 518.728548 327.103211 
L 180.585573 329.712859 
z
" clip-path="url(#pa3dccf8527)" style="fill: none"/>
    <path d="M 181.488162 355.063266 
L 181.115896 360.640128 
L 519.372037 356.500327 
L 519.823723 351.198074 
L 181.488162 355.063266 
z
" clip-path="url(#pa3dccf8527)" style="fill: none"/>
    <path d="M 181.168862 336.449531 
L 181.514714 342.94002 
L 519.85594 339.67432 
L 519.436303 333.505618 
L 181.168862 336.449531 
z
" clip-path="url(#pa3dccf8527)" style="fill: none"/>
    <path d="M 181.621332 349.154179 
L 181.488162 355.063266 
L 519.823723 351.198074 
L 519.985301 345.580853 
L 181.621332 349.154179 
z
" clip-path="url(#pa3dccf8527)" style="fill: none"/>
    <path d="M 181.514714 342.94002 
L 181.621332 349.154179 
L 519.985301 345.580853 
L 519.85594 339.67432 
L 181.514714 342.94002 
z
" clip-path="url(#pa3dccf8527)" style="fill: none"/>
   </g>
   <g id="Poly3DCollection_2">
    <defs>
     <path id="m50cc3a3cdd" d="M 101.100792 -241.814102 
L 98.206308 -248.374795 
L 95.430676 -255.073681 
L 92.783366 -261.884813 
L 90.273271 -268.782233 
L 87.908695 -275.740058 
L 85.697352 -282.732542 
L 83.646356 -289.73415 
L 81.762222 -296.719614 
L 80.050865 -303.663992 
L 78.517598 -310.542718 
L 77.167133 -317.331651 
L 76.003584 -324.007119 
L 75.030469 -330.54596 
L 74.25071 -336.925565 
L 73.666634 -343.123911 
L 73.279979 -349.119599 
L 73.09189 -354.891893 
L 73.102923 -360.420747 
L 73.313047 -365.686849 
L 73.72164 -370.671651 
L 74.327489 -375.357406 
L 75.128794 -379.727208 
L 76.123159 -383.765027 
L 77.307598 -387.455753 
L 78.678527 -390.785238 
L 80.231767 -393.740339 
L 81.962536 -396.308963 
L 83.865457 -398.48012 
L 85.934548 -400.243969 
L 88.163227 -401.591872 
L 90.544314 -402.516447 
L 93.070029 -403.011621 
L 95.732003 -403.072689 
L 98.521278 -402.696366 
L 101.42832 -401.880847 
L 104.443031 -400.625854 
L 107.554759 -398.932697 
L 110.752324 -396.804318 
L 114.024033 -394.245341 
L 117.357712 -391.262112 
L 120.740731 -387.862739 
L 124.160044 -384.057117 
L 127.602228 -379.856954 
L 131.053524 -375.275787 
L 134.499895 -370.328981 
L 137.927074 -365.033723 
L 141.320628 -359.409005 
L 144.666022 -353.475593 
L 147.948687 -347.255976 
L 151.154099 -340.774312 
L 154.26785 -334.056348 
L 157.275736 -327.129333 
L 160.163833 -320.021909 
L 162.918589 -312.763995 
L 165.526908 -305.386642 
L 167.976236 -297.921891 
L 170.254649 -290.402603 
L 172.350935 -282.862284 
L 174.254677 -275.334896 
L 175.956329 -267.854662 
L 177.447293 -260.455857 
L 178.719979 -253.1726 
L 179.76787 -246.03864 
L 180.585573 -239.087141 
L 181.168862 -232.350469 
L 181.514714 -225.85998 
L 181.621332 -219.645821 
L 181.488162 -213.736734 
L 181.115896 -208.159872 
L 180.506468 -202.940632 
L 179.663035 -198.102498 
L 178.589956 -193.666904 
L 177.292748 -189.653115 
L 175.778052 -186.078127 
L 174.053571 -182.956582 
L 172.128013 -180.300718 
L 170.011023 -178.120319 
L 167.713111 -176.422703 
L 165.24557 -175.21272 
L 162.6204 -174.492775 
L 159.850219 -174.262863 
L 156.948177 -174.520625 
L 153.927872 -175.261421 
L 150.803262 -176.47841 
L 147.58858 -178.16265 
L 144.298249 -180.303202 
L 140.946803 -182.887248 
L 137.54881 -185.900212 
L 134.118796 -189.325888 
L 130.67118 -193.146569 
L 127.220207 -197.343184 
L 123.779885 -201.895426 
L 120.363938 -206.78189 
L 116.985749 -211.980201 
L 113.658321 -217.467138 
L 110.394234 -223.218767 
L 107.205611 -229.210549 
L 104.104089 -235.417461 
L 101.100792 -241.814102 
z
" style="stroke: #000080; stroke-opacity: 0.3"/>
    </defs>
    <g clip-path="url(#pa3dccf8527)">
     <use xlink:href="#m50cc3a3cdd" x="0" y="568.8" style="fill: #0000ff; fill-opacity: 0.3; stroke: #000080; stroke-opacity: 0.3"/>
    </g>
   </g>
   <g id="Poly3DCollection_3">
    <defs>
     <path id="m7420d09583" d="M 181.737471 -202.255062 
L 171.426574 -182.198293 
L 98.515715 -236.513125 
L 75.617405 -383.676283 
L 80.986198 -395.941437 
L 154.552939 -347.251188 
z
" style="stroke: #800000; stroke-opacity: 0.2"/>
    </defs>
    <g clip-path="url(#pa3dccf8527)">
     <use xlink:href="#m7420d09583" x="0" y="568.8" style="fill: #ff0000; fill-opacity: 0.2; stroke: #800000; stroke-opacity: 0.2"/>
    </g>
   </g>
  </g>
 </g>
 <defs>
  <clipPath id="pa3dccf8527">
   <rect x="7.2" y="7.2" width="554.4" height="554.4"/>
  </clipPath>
 </defs>
</svg>
