<?xml version="1.0" encoding="utf-8" standalone="no"?>
<!DOCTYPE svg PUBLIC "-//W3C//DTD SVG 1.1//EN"
  "http://www.w3.org/Graphics/SVG/1.1/DTD/svg11.dtd">
<svg xmlns:xlink="http://www.w3.org/1999/xlink" width="568.8pt" height="568.8pt" viewBox="0 0 568.8 568.8" xmlns="http://www.w3.org/2000/svg" version="1.1">
 <metadata>
  <rdf:RDF xmlns:dc="http://purl.org/dc/elements/1.1/" xmlns:cc="http://creativecommons.org/ns#" xmlns:rdf="http://www.w3.org/1999/02/22-rdf-syntax-ns#">
   <cc:Work>
    <dc:type rdf:resource="http://purl.org/dc/dcmitype/StillImage"/>
    <dc:date>2025-12-22T12:42:46.560812</dc:date>
    <dc:format>image/svg+xml</dc:format>
    <dc:creator>
     <cc:Agent>
      <dc:title>Matplotlib v3.9.2, https://matplotlib.org/</dc:title>
     </cc:Agent>
    </dc:creator>
   </cc:Work>
  </rdf:RDF>
 </metadata>
 <defs>
  <style type="text/css">*{stroke-linejoin: round; stroke-linecap: butt}</style>
 </defs>
 <g id="figure_1">
  <g id="patch_1">
   <path d="M 0 568.8 
L 568.8 568.8 
L 568.8 0 
L 0 0 
L 0 568.8 
z
" style="fill: none"/>
  </g>
  <g id="patch_2">
   <path d="M 7.2 561.6 
L 561.6 561.6 
L 561.6 7.2 
L 7.2 7.2 
L 7.2 561.6 
z
" style="fill: none"/>
  </g>
  <g id="axes_1">
   <g id="Poly3DCollection_1">
    <path d="M 73.111596 213.888097 
L 73.122639 208.359363 
L 387.762614 211.462878 
L 387.749098 216.741274 
L 73.111596 213.888097 
z
" clip-path="url(#p8a83565168)" style="fill: none"/>
    <path d="M 73.299837 219.660252 
L 73.111596 213.888097 
L 387.749098 216.741274 
L 387.979508 222.252517 
L 73.299837 219.660252 
z
" clip-path="url(#p8a83565168)" style="fill: none"/>
    <path d="M 73.122639 208.359363 
L 73.332933 203.093361 
L 388.020017 206.435894 
L 387.762614 211.462878 
L 73.122639 208.359363 
z
" clip-path="url(#p8a83565168)" style="fill: none"/>
    <path d="M 73.686806 225.655788 
L 73.299837 219.660252 
L 387.979508 222.252517 
L 388.453152 227.977335 
L 73.686806 225.655788 
z
" clip-path="url(#p8a83565168)" style="fill: none"/>
    <path d="M 73.332933 203.093361 
L 73.741856 198.108638 
L 388.520531 201.678141 
L 388.020017 206.435894 
L 73.332933 203.093361 
z
" clip-path="url(#p8a83565168)" style="fill: none"/>
    <path d="M 74.271354 231.85397 
L 73.686806 225.655788 
L 388.453152 227.977335 
L 389.168603 233.895783 
L 74.271354 231.85397 
z
" clip-path="url(#p8a83565168)" style="fill: none"/>
    <path d="M 73.741856 198.108638 
L 74.348196 193.422936 
L 389.26265 197.206656 
L 388.520531 201.678141 
L 73.741856 198.108638 
z
" clip-path="url(#p8a83565168)" style="fill: none"/>
    <path d="M 75.051745 238.233404 
L 74.271354 231.85397 
L 389.168603 233.895783 
L 390.123701 239.987275 
L 75.051745 238.233404 
z
" clip-path="url(#p8a83565168)" style="fill: none"/>
    <path d="M 74.348196 193.422936 
L 75.15015 189.053161 
L 390.244131 193.037659 
L 389.26265 197.206656 
L 74.348196 193.422936 
z
" clip-path="url(#p8a83565168)" style="fill: none"/>
    <path d="M 76.02565 244.772069 
L 75.051745 238.233404 
L 390.123701 239.987275 
L 391.31555 246.23063 
L 76.02565 244.772069 
z
" clip-path="url(#p8a83565168)" style="fill: none"/>
    <path d="M 75.15015 189.053161 
L 76.145322 185.015342 
L 391.461996 189.18651 
L 390.244131 193.037659 
L 75.15015 189.053161 
z
" clip-path="url(#p8a83565168)" style="fill: none"/>
    <path d="M 77.190145 251.447361 
L 76.02565 244.772069 
L 391.31555 246.23063 
L 392.740515 252.604098 
L 77.190145 251.447361 
z
" clip-path="url(#p8a83565168)" style="fill: none"/>
    <path d="M 76.145322 185.015342 
L 77.330725 181.324585 
L 392.912531 185.667673 
L 391.461996 189.18651 
L 76.145322 185.015342 
z
" clip-path="url(#p8a83565168)" style="fill: none"/>
    <path d="M 78.54171 258.23612 
L 77.190145 251.447361 
L 392.740515 252.604098 
L 394.394227 259.085406 
L 78.54171 258.23612 
z
" clip-path="url(#p8a83565168)" style="fill: none"/>
    <path d="M 77.330725 181.324585 
L 78.702771 177.995041 
L 394.591281 182.494672 
L 392.912531 185.667673 
L 77.330725 181.324585 
z
" clip-path="url(#p8a83565168)" style="fill: none"/>
    <path d="M 80.07623 265.114679 
L 78.54171 258.23612 
L 394.394227 259.085406 
L 396.271573 265.651799 
L 80.07623 265.114679 
z
" clip-path="url(#p8a83565168)" style="fill: none"/>
    <path d="M 78.702771 177.995041 
L 80.25728 175.039852 
L 396.493054 179.68005 
L 394.591281 182.494672 
L 78.702771 177.995041 
z
" clip-path="url(#p8a83565168)" style="fill: none"/>
    <path d="M 81.78899 272.0589 
L 80.07623 265.114679 
L 396.271573 265.651799 
L 398.366702 272.280074 
L 81.78899 272.0589 
z
" clip-path="url(#p8a83565168)" style="fill: none"/>
    <path d="M 80.25728 175.039852 
L 81.989468 172.47111 
L 398.611917 177.235322 
L 396.493054 179.68005 
L 80.25728 175.039852 
z
" clip-path="url(#p8a83565168)" style="fill: none"/>
    <path d="M 83.674672 279.04422 
L 81.78899 272.0589 
L 398.366702 272.280074 
L 400.673022 278.946636 
L 83.674672 279.04422 
z
" clip-path="url(#p8a83565168)" style="fill: none"/>
    <path d="M 81.989468 172.47111 
L 83.893953 170.299807 
L 400.941195 175.17093 
L 398.611917 177.235322 
L 81.989468 172.47111 
z
" clip-path="url(#p8a83565168)" style="fill: none"/>
    <path d="M 85.727359 286.045701 
L 83.674672 279.04422 
L 400.673022 278.946636 
L 403.183199 285.627539 
L 85.727359 286.045701 
z
" clip-path="url(#p8a83565168)" style="fill: none"/>
    <path d="M 83.893953 170.299807 
L 85.96475 168.535784 
L 403.473472 173.496197 
L 400.941195 175.17093 
L 83.893953 170.299807 
z
" clip-path="url(#p8a83565168)" style="fill: none"/>
    <path d="M 87.940532 293.038077 
L 85.727359 286.045701 
L 403.183199 285.627539 
L 405.889163 292.298543 
L 87.940532 293.038077 
z
" clip-path="url(#p8a83565168)" style="fill: none"/>
    <path d="M 85.96475 168.535784 
L 88.195275 167.187683 
L 406.200596 172.219273 
L 403.473472 173.496197 
L 85.96475 168.535784 
z
" clip-path="url(#p8a83565168)" style="fill: none"/>
    <path d="M 90.307072 299.995814 
L 87.940532 293.038077 
L 405.889163 292.298543 
L 408.782105 298.935165 
L 90.307072 299.995814 
z
" clip-path="url(#p8a83565168)" style="fill: none"/>
    <path d="M 88.195275 167.187683 
L 90.578341 166.262886 
L 409.113678 171.34709 
L 406.200596 172.219273 
L 88.195275 167.187683 
z
" clip-path="url(#p8a83565168)" style="fill: none"/>
    <path d="M 92.819262 306.893173 
L 90.307072 299.995814 
L 408.782105 298.935165 
L 411.852487 305.512744 
L 92.819262 306.893173 
z
" clip-path="url(#p8a83565168)" style="fill: none"/>
    <path d="M 90.578341 166.262886 
L 93.106165 165.767469 
L 412.203098 170.885309 
L 409.113678 171.34709 
L 90.578341 166.262886 
z
" clip-path="url(#p8a83565168)" style="fill: none"/>
    <path d="M 95.46879 313.704268 
L 92.819262 306.893173 
L 411.852487 305.512744 
L 415.090045 312.006504 
L 95.46879 313.704268 
z
" clip-path="url(#p8a83565168)" style="fill: none"/>
    <path d="M 93.106165 165.767469 
L 95.77037 165.706141 
L 415.458513 170.838265 
L 412.203098 170.885309 
L 93.106165 165.767469 
z
" clip-path="url(#p8a83565168)" style="fill: none"/>
    <path d="M 98.246759 320.403145 
L 95.46879 313.704268 
L 415.090045 312.006504 
L 418.483802 318.391624 
L 98.246759 320.403145 
z
" clip-path="url(#p8a83565168)" style="fill: none"/>
    <path d="M 95.77037 165.706141 
L 98.561995 166.082189 
L 418.868868 171.208923 
L 415.458513 170.838265 
L 95.77037 165.706141 
z
" clip-path="url(#p8a83565168)" style="fill: none"/>
    <path d="M 101.143691 326.963858 
L 98.246759 320.403145 
L 418.483802 318.391624 
L 422.022079 324.643315 
L 101.143691 326.963858 
z
" clip-path="url(#p8a83565168)" style="fill: none"/>
    <path d="M 98.561995 166.082189 
L 101.471497 166.897423 
L 422.422405 171.99882 
L 418.868868 171.208923 
L 98.561995 166.082189 
z
" clip-path="url(#p8a83565168)" style="fill: none"/>
    <path d="M 101.143691 326.963858 
L 101.143691 326.963858 
L 422.022079 324.643315 
L 422.022079 324.643315 
L 101.143691 326.963858 
z
" clip-path="url(#p8a83565168)" style="fill: none"/>
    <path d="M 104.149541 333.360548 
L 101.143691 326.963858 
L 422.022079 324.643315 
L 425.692509 330.7369 
L 104.149541 333.360548 
z
" clip-path="url(#p8a83565168)" style="fill: none"/>
    <path d="M 101.471497 166.897423 
L 104.488771 168.152123 
L 426.106685 173.208023 
L 422.422405 171.99882 
L 101.471497 166.897423 
z
" clip-path="url(#p8a83565168)" style="fill: none"/>
    <path d="M 107.253713 339.567538 
L 104.149541 333.360548 
L 425.692509 330.7369 
L 429.48206 336.647901 
L 107.253713 339.567538 
z
" clip-path="url(#p8a83565168)" style="fill: none"/>
    <path d="M 104.488771 168.152123 
L 107.60316 169.844985 
L 429.908602 174.835072 
L 426.106685 173.208023 
L 104.488771 168.152123 
z
" clip-path="url(#p8a83565168)" style="fill: none"/>
    <path d="M 110.445074 345.559427 
L 107.253713 339.567538 
L 429.48206 336.647901 
L 433.377057 342.352131 
L 110.445074 345.559427 
z
" clip-path="url(#p8a83565168)" style="fill: none"/>
    <path d="M 107.60316 169.844985 
L 110.803472 171.973069 
L 433.814412 176.876945 
L 429.908602 174.835072 
L 107.60316 169.844985 
z
" clip-path="url(#p8a83565168)" style="fill: none"/>
    <path d="M 113.71198 351.311191 
L 110.445074 345.559427 
L 433.377057 342.352131 
L 437.363211 347.825791 
L 113.71198 351.311191 
z
" clip-path="url(#p8a83565168)" style="fill: none"/>
    <path d="M 110.803472 171.973069 
L 114.078008 174.531758 
L 437.80976 179.329009 
L 433.814412 176.876945 
L 110.803472 171.973069 
z
" clip-path="url(#p8a83565168)" style="fill: none"/>
    <path d="M 117.042296 356.79829 
L 113.71198 351.311191 
L 437.363211 347.825791 
L 441.42565 353.045573 
L 117.042296 356.79829 
z
" clip-path="url(#p8a83565168)" style="fill: none"/>
    <path d="M 114.078008 174.531758 
L 117.414583 177.514709 
L 441.879711 182.184988 
L 437.80976 179.329009 
L 114.078008 174.531758 
z
" clip-path="url(#p8a83565168)" style="fill: none"/>
    <path d="M 120.423433 361.996787 
L 117.042296 356.79829 
L 441.42565 353.045573 
L 445.548961 357.988771 
L 120.423433 361.996787 
z
" clip-path="url(#p8a83565168)" style="fill: none"/>
    <path d="M 117.414583 177.514709 
L 120.800556 180.91382 
L 446.008795 185.43693 
L 441.879711 182.184988 
L 117.414583 177.514709 
z
" clip-path="url(#p8a83565168)" style="fill: none"/>
    <path d="M 123.842378 366.883459 
L 120.423433 361.996787 
L 445.548961 357.988771 
L 449.717231 362.633389 
L 123.842378 366.883459 
z
" clip-path="url(#p8a83565168)" style="fill: none"/>
    <path d="M 120.800556 180.91382 
L 124.222872 184.719198 
L 450.181046 189.075181 
L 446.008795 185.43693 
L 120.800556 180.91382 
z
" clip-path="url(#p8a83565168)" style="fill: none"/>
    <path d="M 127.285736 371.43593 
L 123.842378 366.883459 
L 449.717231 362.633389 
L 453.914098 366.95826 
L 127.285736 371.43593 
z
" clip-path="url(#p8a83565168)" style="fill: none"/>
    <path d="M 124.222872 184.719198 
L 127.668095 188.919139 
L 454.380056 193.088369 
L 450.181046 189.075181 
L 124.222872 184.719198 
z
" clip-path="url(#p8a83565168)" style="fill: none"/>
    <path d="M 130.739772 375.632788 
L 127.285736 371.43593 
L 453.914098 366.95826 
L 458.122803 370.943164 
L 130.739772 375.632788 
z
" clip-path="url(#p8a83565168)" style="fill: none"/>
    <path d="M 127.668095 188.919139 
L 131.122456 193.500112 
L 458.589028 197.463393 
L 454.380056 193.088369 
L 127.668095 188.919139 
z
" clip-path="url(#p8a83565168)" style="fill: none"/>
    <path d="M 134.190464 379.453726 
L 130.739772 375.632788 
L 458.122803 370.943164 
L 462.326259 374.568954 
L 134.190464 379.453726 
z
" clip-path="url(#p8a83565168)" style="fill: none"/>
    <path d="M 131.122456 193.500112 
L 134.571904 198.446755 
L 462.790838 202.185425 
L 458.589028 197.463393 
L 131.122456 193.500112 
z
" clip-path="url(#p8a83565168)" style="fill: none"/>
    <path d="M 137.623555 382.879666 
L 134.190464 379.453726 
L 462.326259 374.568954 
L 466.507108 377.817673 
L 137.623555 382.879666 
z
" clip-path="url(#p8a83565168)" style="fill: none"/>
    <path d="M 134.571904 198.446755 
L 138.00216 203.741884 
L 466.968105 207.237917 
L 462.790838 202.185425 
L 134.571904 198.446755 
z
" clip-path="url(#p8a83565168)" style="fill: none"/>
    <path d="M 141.024613 385.892899 
L 137.623555 382.879666 
L 466.507108 377.817673 
L 470.647802 380.672685 
L 141.024613 385.892899 
z
" clip-path="url(#p8a83565168)" style="fill: none"/>
    <path d="M 138.00216 203.741884 
L 141.398777 209.366509 
L 471.103266 212.602628 
L 466.968105 207.237917 
L 138.00216 203.741884 
z
" clip-path="url(#p8a83565168)" style="fill: none"/>
    <path d="M 144.379099 388.477214 
L 141.024613 385.892899 
L 470.647802 380.672685 
L 474.730678 383.118793 
L 144.379099 388.477214 
z
" clip-path="url(#p8a83565168)" style="fill: none"/>
    <path d="M 141.398777 209.366509 
L 144.747206 215.299867 
L 475.178647 218.25965 
L 471.103266 212.602628 
L 141.398777 209.366509 
z
" clip-path="url(#p8a83565168)" style="fill: none"/>
    <path d="M 147.672429 390.618029 
L 144.379099 388.477214 
L 474.730678 383.118793 
L 478.738041 385.142364 
L 147.672429 390.618029 
z
" clip-path="url(#p8a83565168)" style="fill: none"/>
    <path d="M 144.747206 215.299867 
L 148.032865 221.519471 
L 479.176559 224.187462 
L 475.178647 218.25965 
L 144.747206 215.299867 
z
" clip-path="url(#p8a83565168)" style="fill: none"/>
    <path d="M 150.890056 392.302522 
L 147.672429 390.618029 
L 478.738041 385.142364 
L 482.652257 386.731441 
L 150.890056 392.302522 
z
" clip-path="url(#p8a83565168)" style="fill: none"/>
    <path d="M 148.032865 221.519471 
L 151.241215 228.001164 
L 483.079377 230.362984 
L 479.176559 224.187462 
L 148.032865 221.519471 
z
" clip-path="url(#p8a83565168)" style="fill: none"/>
    <path d="M 154.017542 393.519749 
L 150.890056 392.302522 
L 482.652257 386.731441 
L 486.45584 387.875861 
L 154.017542 393.519749 
z
" clip-path="url(#p8a83565168)" style="fill: none"/>
    <path d="M 151.241215 228.001164 
L 154.357834 234.719199 
L 486.869638 236.761653 
L 483.079377 230.362984 
L 151.241215 228.001164 
z
" clip-path="url(#p8a83565168)" style="fill: none"/>
    <path d="M 157.040641 394.260764 
L 154.017542 393.519749 
L 486.45584 387.875861 
L 490.131554 388.567356 
L 157.040641 394.260764 
z
" clip-path="url(#p8a83565168)" style="fill: none"/>
    <path d="M 154.357834 234.719199 
L 157.368503 241.646328 
L 490.530141 243.357511 
L 486.869638 236.761653 
L 154.357834 234.719199 
z
" clip-path="url(#p8a83565168)" style="fill: none"/>
    <path d="M 159.945379 394.518723 
L 157.040641 394.260764 
L 490.131554 388.567356 
L 493.662511 388.799652 
L 159.945379 394.518723 
z
" clip-path="url(#p8a83565168)" style="fill: none"/>
    <path d="M 157.368503 241.646328 
L 160.259285 248.753906 
L 494.044041 250.123305 
L 490.530141 243.357511 
L 157.368503 241.646328 
z
" clip-path="url(#p8a83565168)" style="fill: none"/>
    <path d="M 162.718146 394.288979 
L 159.945379 394.518723 
L 493.662511 388.799652 
L 497.032271 388.568558 
L 162.718146 394.288979 
z
" clip-path="url(#p8a83565168)" style="fill: none"/>
    <path d="M 160.259285 248.753906 
L 163.016614 256.012015 
L 497.394955 257.030602 
L 494.044041 250.123305 
L 160.259285 248.753906 
z
" clip-path="url(#p8a83565168)" style="fill: none"/>
    <path d="M 165.345776 393.569171 
L 162.718146 394.288979 
L 497.032271 388.568558 
L 500.224948 387.872038 
L 165.345776 393.569171 
z
" clip-path="url(#p8a83565168)" style="fill: none"/>
    <path d="M 163.016614 256.012015 
L 165.627378 263.3896 
L 500.567065 264.049922 
L 497.394955 257.030602 
L 163.016614 256.012015 
z
" clip-path="url(#p8a83565168)" style="fill: none"/>
    <path d="M 167.815637 392.35929 
L 165.345776 393.569171 
L 500.224948 387.872038 
L 503.225311 386.710275 
L 167.815637 392.35929 
z
" clip-path="url(#p8a83565168)" style="fill: none"/>
    <path d="M 165.627378 263.3896 
L 168.079011 270.854619 
L 503.545219 271.150877 
L 500.567065 264.049922 
L 165.627378 263.3896 
z
" clip-path="url(#p8a83565168)" style="fill: none"/>
    <path d="M 170.115719 390.661739 
L 167.815637 392.35929 
L 503.225311 386.710275 
L 506.018889 385.085724 
L 170.115719 390.661739 
z
" clip-path="url(#p8a83565168)" style="fill: none"/>
    <path d="M 168.079011 270.854619 
L 170.359576 278.374206 
L 506.315035 278.302326 
L 503.545219 271.150877 
L 168.079011 270.854619 
z
" clip-path="url(#p8a83565168)" style="fill: none"/>
    <path d="M 172.234714 388.481364 
L 170.115719 390.661739 
L 506.018889 385.085724 
L 508.592067 383.00314 
L 172.234714 388.481364 
z
" clip-path="url(#p8a83565168)" style="fill: none"/>
    <path d="M 170.359576 278.374206 
L 172.457848 285.914851 
L 508.863001 285.472545 
L 506.315035 278.302326 
L 170.359576 278.374206 
z
" clip-path="url(#p8a83565168)" style="fill: none"/>
    <path d="M 174.162101 385.825484 
L 172.234714 388.481364 
L 508.592067 383.00314 
L 510.932185 380.469593 
L 174.162101 385.825484 
z
" clip-path="url(#p8a83565168)" style="fill: none"/>
    <path d="M 172.457848 285.914851 
L 174.363398 293.442589 
L 511.176567 292.629396 
L 508.863001 285.472545 
L 172.457848 285.914851 
z
" clip-path="url(#p8a83565168)" style="fill: none"/>
    <path d="M 175.888225 382.703881 
L 174.162101 385.825484 
L 510.932185 380.469593 
L 513.027632 377.494474 
L 175.888225 382.703881 
z
" clip-path="url(#p8a83565168)" style="fill: none"/>
    <path d="M 174.363398 293.442589 
L 176.066673 300.923191 
L 513.244244 299.740519 
L 511.176567 292.629396 
L 174.363398 293.442589 
z
" clip-path="url(#p8a83565168)" style="fill: none"/>
    <path d="M 177.404368 379.128791 
L 175.888225 382.703881 
L 513.027632 377.494474 
L 514.867929 374.089467 
L 177.404368 379.128791 
z
" clip-path="url(#p8a83565168)" style="fill: none"/>
    <path d="M 176.066673 300.923191 
L 177.55906 308.322378 
L 515.055682 306.773516 
L 513.244244 299.740519 
L 176.066673 300.923191 
z
" clip-path="url(#p8a83565168)" style="fill: none"/>
    <path d="M 178.702816 375.11486 
L 177.404368 379.128791 
L 514.867929 374.089467 
L 516.443809 370.268516 
L 178.702816 375.11486 
z
" clip-path="url(#p8a83565168)" style="fill: none"/>
    <path d="M 177.55906 308.322378 
L 178.832964 315.606024 
L 516.601755 313.696151 
L 515.055682 306.773516 
L 177.55906 308.322378 
z
" clip-path="url(#p8a83565168)" style="fill: none"/>
    <path d="M 179.776925 370.679082 
L 178.702816 375.11486 
L 516.443809 370.268516 
L 517.74729 366.047768 
L 179.776925 370.679082 
z
" clip-path="url(#p8a83565168)" style="fill: none"/>
    <path d="M 178.832964 315.606024 
L 179.88186 322.740375 
L 517.874628 320.476551 
L 516.601755 313.696151 
L 178.832964 315.606024 
z
" clip-path="url(#p8a83565168)" style="fill: none"/>
    <path d="M 180.621167 365.840726 
L 179.776925 370.679082 
L 517.74729 366.047768 
L 518.771739 361.445492 
L 180.621167 365.840726 
z
" clip-path="url(#p8a83565168)" style="fill: none"/>
    <path d="M 179.88186 322.740375 
L 180.700348 329.692261 
L 518.867817 327.083399 
L 517.874628 320.476551 
L 179.88186 322.740375 
z
" clip-path="url(#p8a83565168)" style="fill: none"/>
    <path d="M 181.231181 360.621228 
L 180.621167 365.840726 
L 518.771739 361.445492 
L 519.511919 356.481991 
L 181.231181 360.621228 
z
" clip-path="url(#p8a83565168)" style="fill: none"/>
    <path d="M 180.700348 329.692261 
L 181.284198 336.429312 
L 519.576246 333.486135 
L 518.867817 327.083399 
L 180.700348 329.692261 
z
" clip-path="url(#p8a83565168)" style="fill: none"/>
    <path d="M 181.603804 355.044075 
L 181.231181 360.621228 
L 519.511919 356.481991 
L 519.964035 351.179485 
L 181.603804 355.044075 
z
" clip-path="url(#p8a83565168)" style="fill: none"/>
    <path d="M 181.284198 336.429312 
L 181.630382 342.920165 
L 519.996282 339.655154 
L 519.576246 333.486135 
L 181.284198 336.429312 
z
" clip-path="url(#p8a83565168)" style="fill: none"/>
    <path d="M 181.737103 349.134668 
L 181.603804 355.044075 
L 519.964035 351.179485 
L 520.125767 345.561986 
L 181.737103 349.134668 
z
" clip-path="url(#p8a83565168)" style="fill: none"/>
    <path d="M 181.630382 342.920165 
L 181.737103 349.134668 
L 520.125767 345.561986 
L 519.996282 339.655154 
L 181.630382 342.920165 
z
" clip-path="url(#p8a83565168)" style="fill: none"/>
   </g>
   <g id="Poly3DCollection_2">
    <defs>
     <path id="m9f76b9c39d" d="M 101.143691 -241.836142 
L 98.246759 -248.396855 
L 95.46879 -255.095732 
L 92.819262 -261.906827 
L 90.307072 -268.804186 
L 87.940532 -275.761923 
L 85.727359 -282.754299 
L 83.674672 -289.75578 
L 81.78899 -296.7411 
L 80.07623 -303.685321 
L 78.54171 -310.56388 
L 77.190145 -317.352639 
L 76.02565 -324.027931 
L 75.051745 -330.566596 
L 74.271354 -336.94603 
L 73.686806 -343.144212 
L 73.299837 -349.139748 
L 73.111596 -354.911903 
L 73.122639 -360.440637 
L 73.332933 -365.706639 
L 73.741856 -370.691362 
L 74.348196 -375.377064 
L 75.15015 -379.746839 
L 76.145322 -383.784658 
L 77.330725 -387.475415 
L 78.702771 -390.804959 
L 80.25728 -393.760148 
L 81.989468 -396.32889 
L 83.893953 -398.500193 
L 85.96475 -400.264216 
L 88.195275 -401.612317 
L 90.578341 -402.537114 
L 93.106165 -403.032531 
L 95.77037 -403.093859 
L 98.561995 -402.717811 
L 101.471497 -401.902577 
L 104.488771 -400.647877 
L 107.60316 -398.955015 
L 110.803472 -396.826931 
L 114.078008 -394.268242 
L 117.414583 -391.285291 
L 120.800556 -387.88618 
L 124.222872 -384.080802 
L 127.668095 -379.880861 
L 131.122456 -375.299888 
L 134.571904 -370.353245 
L 138.00216 -365.058116 
L 141.398777 -359.433491 
L 144.747206 -353.500133 
L 148.032865 -347.280529 
L 151.241215 -340.798836 
L 154.357834 -334.080801 
L 157.368503 -327.153672 
L 160.259285 -320.046094 
L 163.016614 -312.787985 
L 165.627378 -305.4104 
L 168.079011 -297.945381 
L 170.359576 -290.425794 
L 172.457848 -282.885149 
L 174.363398 -275.357411 
L 176.066673 -267.876809 
L 177.55906 -260.477622 
L 178.832964 -253.193976 
L 179.88186 -246.059625 
L 180.700348 -239.107739 
L 181.284198 -232.370688 
L 181.630382 -225.879835 
L 181.737103 -219.665332 
L 181.603804 -213.755925 
L 181.231181 -208.178772 
L 180.621167 -202.959274 
L 179.776925 -198.120918 
L 178.702816 -193.68514 
L 177.404368 -189.671209 
L 175.888225 -186.096119 
L 174.162101 -182.974516 
L 172.234714 -180.318636 
L 170.115719 -178.138261 
L 167.815637 -176.44071 
L 165.345776 -175.230829 
L 162.718146 -174.511021 
L 159.945379 -174.281277 
L 157.040641 -174.539236 
L 154.017542 -175.280251 
L 150.890056 -176.497478 
L 147.672429 -178.181971 
L 144.379099 -180.322786 
L 141.024613 -182.907101 
L 137.623555 -185.920334 
L 134.190464 -189.346274 
L 130.739772 -193.167212 
L 127.285736 -197.36407 
L 123.842378 -201.916541 
L 120.423433 -206.803213 
L 117.042296 -212.00171 
L 113.71198 -217.488809 
L 110.445074 -223.240573 
L 107.253713 -229.232462 
L 104.149541 -235.439452 
L 101.143691 -241.836142 
z
" style="stroke: #000080; stroke-opacity: 0.3"/>
    </defs>
    <g clip-path="url(#p8a83565168)">
     <use xlink:href="#m9f76b9c39d" x="0" y="568.8" style="fill: #0000ff; fill-opacity: 0.3; stroke: #000080; stroke-opacity: 0.3"/>
    </g>
   </g>
   <g id="Poly3DCollection_3">
    <defs>
     <path id="md5fd309dac" d="M 181.737471 -197.373899 
L 169.278372 -173.294639 
L 73.09189 -182.709614 
L 73.09189 -378.02081 
L 83.642736 -402.106913 
L 181.737471 -411.708673 
z
" style="stroke: #800000; stroke-opacity: 0.2"/>
    </defs>
    <g clip-path="url(#p8a83565168)">
     <use xlink:href="#md5fd309dac" x="0" y="568.8" style="fill: #ff0000; fill-opacity: 0.2; stroke: #800000; stroke-opacity: 0.2"/>
    </g>
   </g>
  </g>
 </g>
 <defs>
  <clipPath id="p8a83565168">
   <rect x="7.2" y="7.2" width="554.4" height="554.4"/>
  </clipPath>
 </defs>
</svg>
