<?xml version="1.0" encoding="utf-8" standalone="no"?>
<!DOCTYPE svg PUBLIC "-//W3C//DTD SVG 1.1//EN"
  "http://www.w3.org/Graphics/SVG/1.1/DTD/svg11.dtd">
<svg xmlns:xlink="http://www.w3.org/1999/xlink" width="280.779844pt" height="209.946188pt" viewBox="0 0 280.779844 209.946188" xmlns="http://www.w3.org/2000/svg" version="1.1">
 <metadata>
  <rdf:RDF xmlns:dc="http://purl.org/dc/elements/1.1/" xmlns:cc="http://creativecommons.org/ns#" xmlns:rdf="http://www.w3.org/1999/02/22-rdf-syntax-ns#">
   <cc:Work>
    <dc:type rdf:resource="http://purl.org/dc/dcmitype/StillImage"/>
    <dc:date>2026-03-02T15:07:41.722537</dc:date>
    <dc:format>image/svg+xml</dc:format>
    <dc:creator>
     <cc:Agent>
      <dc:title>Matplotlib v3.9.2, https://matplotlib.org/</dc:title>
     </cc:Agent>
    </dc:creator>
   </cc:Work>
  </rdf:RDF>
 </metadata>
 <defs>
  <style type="text/css">*{stroke-linejoin: round; stroke-linecap: butt}</style>
 </defs>
 <g id="figure_1">
  <g id="patch_1">
   <path d="M 0 209.946188 
L 280.779844 209.946188 
L 280.779844 0 
L 0 0 
z
" style="fill: #ffffff"/>
  </g>
  <g id="axes_1">
   <g id="patch_2">
    <path d="M 24.659844 176.524 
L 273.579844 176.524 
L 273.579844 7.2 
L 24.659844 7.2 
z
" style="fill: #ffffff"/>
   </g>
   <g id="matplotlib.axis_1">
    <g id="xtick_1">
     <g id="line2d_1">
      <defs>
       <path id="mda6d5f32b0" d="M 0 0 
L 0 3 
" style="stroke: #000000; stroke-width: 0.6"/>
      </defs>
      <g>
       <use xlink:href="#mda6d5f32b0" x="84.850912" y="176.524" style="stroke: #000000; stroke-width: 0.6"/>
      </g>
     </g>
     <g id="text_1">
      <!-- Case 5 -->
      <g transform="translate(69.009506 190.181813) scale(0.1 -0.1)">
       <defs>
        <path id="ArialMT-43" d="M 3763 1606 
L 4369 1453 
Q 4178 706 3683 314 
Q 3188 -78 2472 -78 
Q 1731 -78 1267 223 
Q 803 525 561 1097 
Q 319 1669 319 2325 
Q 319 3041 592 3573 
Q 866 4106 1370 4382 
Q 1875 4659 2481 4659 
Q 3169 4659 3637 4309 
Q 4106 3959 4291 3325 
L 3694 3184 
Q 3534 3684 3231 3912 
Q 2928 4141 2469 4141 
Q 1941 4141 1586 3887 
Q 1231 3634 1087 3207 
Q 944 2781 944 2328 
Q 944 1744 1114 1308 
Q 1284 872 1643 656 
Q 2003 441 2422 441 
Q 2931 441 3284 734 
Q 3638 1028 3763 1606 
z
" transform="scale(0.015625)"/>
        <path id="ArialMT-61" d="M 2588 409 
Q 2275 144 1986 34 
Q 1697 -75 1366 -75 
Q 819 -75 525 192 
Q 231 459 231 875 
Q 231 1119 342 1320 
Q 453 1522 633 1644 
Q 813 1766 1038 1828 
Q 1203 1872 1538 1913 
Q 2219 1994 2541 2106 
Q 2544 2222 2544 2253 
Q 2544 2597 2384 2738 
Q 2169 2928 1744 2928 
Q 1347 2928 1158 2789 
Q 969 2650 878 2297 
L 328 2372 
Q 403 2725 575 2942 
Q 747 3159 1072 3276 
Q 1397 3394 1825 3394 
Q 2250 3394 2515 3294 
Q 2781 3194 2906 3042 
Q 3031 2891 3081 2659 
Q 3109 2516 3109 2141 
L 3109 1391 
Q 3109 606 3145 398 
Q 3181 191 3288 0 
L 2700 0 
Q 2613 175 2588 409 
z
M 2541 1666 
Q 2234 1541 1622 1453 
Q 1275 1403 1131 1340 
Q 988 1278 909 1158 
Q 831 1038 831 891 
Q 831 666 1001 516 
Q 1172 366 1500 366 
Q 1825 366 2078 508 
Q 2331 650 2450 897 
Q 2541 1088 2541 1459 
L 2541 1666 
z
" transform="scale(0.015625)"/>
        <path id="ArialMT-73" d="M 197 991 
L 753 1078 
Q 800 744 1014 566 
Q 1228 388 1613 388 
Q 2000 388 2187 545 
Q 2375 703 2375 916 
Q 2375 1106 2209 1216 
Q 2094 1291 1634 1406 
Q 1016 1563 777 1677 
Q 538 1791 414 1992 
Q 291 2194 291 2438 
Q 291 2659 392 2848 
Q 494 3038 669 3163 
Q 800 3259 1026 3326 
Q 1253 3394 1513 3394 
Q 1903 3394 2198 3281 
Q 2494 3169 2634 2976 
Q 2775 2784 2828 2463 
L 2278 2388 
Q 2241 2644 2061 2787 
Q 1881 2931 1553 2931 
Q 1166 2931 1000 2803 
Q 834 2675 834 2503 
Q 834 2394 903 2306 
Q 972 2216 1119 2156 
Q 1203 2125 1616 2013 
Q 2213 1853 2448 1751 
Q 2684 1650 2818 1456 
Q 2953 1263 2953 975 
Q 2953 694 2789 445 
Q 2625 197 2315 61 
Q 2006 -75 1616 -75 
Q 969 -75 630 194 
Q 291 463 197 991 
z
" transform="scale(0.015625)"/>
        <path id="ArialMT-65" d="M 2694 1069 
L 3275 997 
Q 3138 488 2766 206 
Q 2394 -75 1816 -75 
Q 1088 -75 661 373 
Q 234 822 234 1631 
Q 234 2469 665 2931 
Q 1097 3394 1784 3394 
Q 2450 3394 2872 2941 
Q 3294 2488 3294 1666 
Q 3294 1616 3291 1516 
L 816 1516 
Q 847 969 1125 678 
Q 1403 388 1819 388 
Q 2128 388 2347 550 
Q 2566 713 2694 1069 
z
M 847 1978 
L 2700 1978 
Q 2663 2397 2488 2606 
Q 2219 2931 1791 2931 
Q 1403 2931 1139 2672 
Q 875 2413 847 1978 
z
" transform="scale(0.015625)"/>
        <path id="ArialMT-20" transform="scale(0.015625)"/>
        <path id="ArialMT-35" d="M 266 1200 
L 856 1250 
Q 922 819 1161 601 
Q 1400 384 1738 384 
Q 2144 384 2425 690 
Q 2706 997 2706 1503 
Q 2706 1984 2436 2262 
Q 2166 2541 1728 2541 
Q 1456 2541 1237 2417 
Q 1019 2294 894 2097 
L 366 2166 
L 809 4519 
L 3088 4519 
L 3088 3981 
L 1259 3981 
L 1013 2750 
Q 1425 3038 1878 3038 
Q 2478 3038 2890 2622 
Q 3303 2206 3303 1553 
Q 3303 931 2941 478 
Q 2500 -78 1738 -78 
Q 1113 -78 717 272 
Q 322 622 266 1200 
z
" transform="scale(0.015625)"/>
       </defs>
       <use xlink:href="#ArialMT-43"/>
       <use xlink:href="#ArialMT-61" x="72.216797"/>
       <use xlink:href="#ArialMT-73" x="127.832031"/>
       <use xlink:href="#ArialMT-65" x="177.832031"/>
       <use xlink:href="#ArialMT-20" x="233.447266"/>
       <use xlink:href="#ArialMT-35" x="261.230469"/>
      </g>
      <!-- Constraints -->
      <g transform="translate(59.564193 200.758688) scale(0.1 -0.1)">
       <defs>
        <path id="ArialMT-6f" d="M 213 1659 
Q 213 2581 725 3025 
Q 1153 3394 1769 3394 
Q 2453 3394 2887 2945 
Q 3322 2497 3322 1706 
Q 3322 1066 3130 698 
Q 2938 331 2570 128 
Q 2203 -75 1769 -75 
Q 1072 -75 642 372 
Q 213 819 213 1659 
z
M 791 1659 
Q 791 1022 1069 705 
Q 1347 388 1769 388 
Q 2188 388 2466 706 
Q 2744 1025 2744 1678 
Q 2744 2294 2464 2611 
Q 2184 2928 1769 2928 
Q 1347 2928 1069 2612 
Q 791 2297 791 1659 
z
" transform="scale(0.015625)"/>
        <path id="ArialMT-6e" d="M 422 0 
L 422 3319 
L 928 3319 
L 928 2847 
Q 1294 3394 1984 3394 
Q 2284 3394 2536 3286 
Q 2788 3178 2913 3003 
Q 3038 2828 3088 2588 
Q 3119 2431 3119 2041 
L 3119 0 
L 2556 0 
L 2556 2019 
Q 2556 2363 2490 2533 
Q 2425 2703 2258 2804 
Q 2091 2906 1866 2906 
Q 1506 2906 1245 2678 
Q 984 2450 984 1813 
L 984 0 
L 422 0 
z
" transform="scale(0.015625)"/>
        <path id="ArialMT-74" d="M 1650 503 
L 1731 6 
Q 1494 -44 1306 -44 
Q 1000 -44 831 53 
Q 663 150 594 308 
Q 525 466 525 972 
L 525 2881 
L 113 2881 
L 113 3319 
L 525 3319 
L 525 4141 
L 1084 4478 
L 1084 3319 
L 1650 3319 
L 1650 2881 
L 1084 2881 
L 1084 941 
Q 1084 700 1114 631 
Q 1144 563 1211 522 
Q 1278 481 1403 481 
Q 1497 481 1650 503 
z
" transform="scale(0.015625)"/>
        <path id="ArialMT-72" d="M 416 0 
L 416 3319 
L 922 3319 
L 922 2816 
Q 1116 3169 1280 3281 
Q 1444 3394 1641 3394 
Q 1925 3394 2219 3213 
L 2025 2691 
Q 1819 2813 1613 2813 
Q 1428 2813 1281 2702 
Q 1134 2591 1072 2394 
Q 978 2094 978 1738 
L 978 0 
L 416 0 
z
" transform="scale(0.015625)"/>
        <path id="ArialMT-69" d="M 425 3934 
L 425 4581 
L 988 4581 
L 988 3934 
L 425 3934 
z
M 425 0 
L 425 3319 
L 988 3319 
L 988 0 
L 425 0 
z
" transform="scale(0.015625)"/>
       </defs>
       <use xlink:href="#ArialMT-43"/>
       <use xlink:href="#ArialMT-6f" x="72.216797"/>
       <use xlink:href="#ArialMT-6e" x="127.832031"/>
       <use xlink:href="#ArialMT-73" x="183.447266"/>
       <use xlink:href="#ArialMT-74" x="233.447266"/>
       <use xlink:href="#ArialMT-72" x="261.230469"/>
       <use xlink:href="#ArialMT-61" x="294.53125"/>
       <use xlink:href="#ArialMT-69" x="350.146484"/>
       <use xlink:href="#ArialMT-6e" x="372.363281"/>
       <use xlink:href="#ArialMT-74" x="427.978516"/>
       <use xlink:href="#ArialMT-73" x="455.761719"/>
      </g>
     </g>
    </g>
    <g id="xtick_2">
     <g id="line2d_2">
      <g>
       <use xlink:href="#mda6d5f32b0" x="213.388776" y="176.524" style="stroke: #000000; stroke-width: 0.6"/>
      </g>
     </g>
     <g id="text_2">
      <!-- Case 5 -->
      <g transform="translate(197.547369 190.181813) scale(0.1 -0.1)">
       <use xlink:href="#ArialMT-43"/>
       <use xlink:href="#ArialMT-61" x="72.216797"/>
       <use xlink:href="#ArialMT-73" x="127.832031"/>
       <use xlink:href="#ArialMT-65" x="177.832031"/>
       <use xlink:href="#ArialMT-20" x="233.447266"/>
       <use xlink:href="#ArialMT-35" x="261.230469"/>
      </g>
      <!-- Variables -->
      <g transform="translate(192.913776 200.758688) scale(0.1 -0.1)">
       <defs>
        <path id="ArialMT-56" d="M 1803 0 
L 28 4581 
L 684 4581 
L 1875 1253 
Q 2019 853 2116 503 
Q 2222 878 2363 1253 
L 3600 4581 
L 4219 4581 
L 2425 0 
L 1803 0 
z
" transform="scale(0.015625)"/>
        <path id="ArialMT-62" d="M 941 0 
L 419 0 
L 419 4581 
L 981 4581 
L 981 2947 
Q 1338 3394 1891 3394 
Q 2197 3394 2470 3270 
Q 2744 3147 2920 2923 
Q 3097 2700 3197 2384 
Q 3297 2069 3297 1709 
Q 3297 856 2875 390 
Q 2453 -75 1863 -75 
Q 1275 -75 941 416 
L 941 0 
z
M 934 1684 
Q 934 1088 1097 822 
Q 1363 388 1816 388 
Q 2184 388 2453 708 
Q 2722 1028 2722 1663 
Q 2722 2313 2464 2622 
Q 2206 2931 1841 2931 
Q 1472 2931 1203 2611 
Q 934 2291 934 1684 
z
" transform="scale(0.015625)"/>
        <path id="ArialMT-6c" d="M 409 0 
L 409 4581 
L 972 4581 
L 972 0 
L 409 0 
z
" transform="scale(0.015625)"/>
       </defs>
       <use xlink:href="#ArialMT-56"/>
       <use xlink:href="#ArialMT-61" x="59.324219"/>
       <use xlink:href="#ArialMT-72" x="114.939453"/>
       <use xlink:href="#ArialMT-69" x="148.240234"/>
       <use xlink:href="#ArialMT-61" x="170.457031"/>
       <use xlink:href="#ArialMT-62" x="226.072266"/>
       <use xlink:href="#ArialMT-6c" x="281.6875"/>
       <use xlink:href="#ArialMT-65" x="303.904297"/>
       <use xlink:href="#ArialMT-73" x="359.519531"/>
      </g>
     </g>
    </g>
   </g>
   <g id="matplotlib.axis_2">
    <g id="ytick_1">
     <g id="line2d_3"/>
    </g>
    <g id="ytick_2">
     <g id="line2d_4"/>
    </g>
    <g id="ytick_3">
     <g id="line2d_5"/>
    </g>
    <g id="ytick_4">
     <g id="line2d_6"/>
    </g>
    <g id="ytick_5">
     <g id="line2d_7"/>
    </g>
    <g id="ytick_6">
     <g id="line2d_8"/>
    </g>
    <g id="ytick_7">
     <g id="line2d_9"/>
    </g>
    <g id="ytick_8">
     <g id="line2d_10"/>
    </g>
    <g id="ytick_9">
     <g id="line2d_11"/>
    </g>
    <g id="ytick_10">
     <g id="line2d_12"/>
    </g>
    <g id="ytick_11">
     <g id="line2d_13"/>
    </g>
    <g id="ytick_12">
     <g id="line2d_14"/>
    </g>
    <g id="ytick_13">
     <g id="line2d_15"/>
    </g>
    <g id="ytick_14">
     <g id="line2d_16"/>
    </g>
    <g id="ytick_15">
     <g id="line2d_17"/>
    </g>
    <g id="ytick_16">
     <g id="line2d_18"/>
    </g>
    <g id="ytick_17">
     <g id="line2d_19"/>
    </g>
    <g id="ytick_18">
     <g id="line2d_20"/>
    </g>
    <g id="ytick_19">
     <g id="line2d_21"/>
    </g>
    <g id="ytick_20">
     <g id="line2d_22"/>
    </g>
    <g id="ytick_21">
     <g id="line2d_23"/>
    </g>
    <g id="ytick_22">
     <g id="line2d_24"/>
    </g>
    <g id="ytick_23">
     <g id="line2d_25"/>
    </g>
    <g id="ytick_24">
     <g id="line2d_26"/>
    </g>
    <g id="ytick_25">
     <g id="line2d_27"/>
    </g>
    <g id="ytick_26">
     <g id="line2d_28"/>
    </g>
    <g id="ytick_27">
     <g id="line2d_29"/>
    </g>
    <g id="ytick_28">
     <g id="line2d_30"/>
    </g>
    <g id="ytick_29">
     <g id="line2d_31"/>
    </g>
    <g id="ytick_30">
     <g id="line2d_32"/>
    </g>
    <g id="ytick_31">
     <g id="line2d_33"/>
    </g>
    <g id="ytick_32">
     <g id="line2d_34"/>
    </g>
    <g id="ytick_33">
     <g id="line2d_35"/>
    </g>
    <g id="ytick_34">
     <g id="line2d_36"/>
    </g>
    <g id="ytick_35">
     <g id="line2d_37"/>
    </g>
    <g id="ytick_36">
     <g id="line2d_38"/>
    </g>
    <g id="ytick_37">
     <g id="line2d_39"/>
    </g>
    <g id="ytick_38">
     <g id="line2d_40"/>
    </g>
    <g id="ytick_39">
     <g id="line2d_41"/>
    </g>
    <g id="ytick_40">
     <g id="line2d_42"/>
    </g>
    <g id="ytick_41">
     <g id="line2d_43"/>
    </g>
    <g id="ytick_42">
     <g id="line2d_44"/>
    </g>
    <g id="ytick_43">
     <g id="line2d_45"/>
    </g>
    <g id="ytick_44">
     <g id="line2d_46"/>
    </g>
    <g id="ytick_45">
     <g id="line2d_47"/>
    </g>
    <g id="ytick_46">
     <g id="line2d_48"/>
    </g>
    <g id="ytick_47">
     <g id="line2d_49"/>
    </g>
    <g id="ytick_48">
     <g id="line2d_50"/>
    </g>
    <g id="text_3">
     <!-- Count -->
     <g transform="translate(15.073594 106.537547) rotate(-90) scale(0.11 -0.11)">
      <defs>
       <path id="ArialMT-75" d="M 2597 0 
L 2597 488 
Q 2209 -75 1544 -75 
Q 1250 -75 995 37 
Q 741 150 617 320 
Q 494 491 444 738 
Q 409 903 409 1263 
L 409 3319 
L 972 3319 
L 972 1478 
Q 972 1038 1006 884 
Q 1059 663 1231 536 
Q 1403 409 1656 409 
Q 1909 409 2131 539 
Q 2353 669 2445 892 
Q 2538 1116 2538 1541 
L 2538 3319 
L 3100 3319 
L 3100 0 
L 2597 0 
z
" transform="scale(0.015625)"/>
      </defs>
      <use xlink:href="#ArialMT-43"/>
      <use xlink:href="#ArialMT-6f" x="72.216797"/>
      <use xlink:href="#ArialMT-75" x="127.832031"/>
      <use xlink:href="#ArialMT-6e" x="183.447266"/>
      <use xlink:href="#ArialMT-74" x="239.0625"/>
     </g>
    </g>
   </g>
   <g id="patch_3">
    <path d="M 24.659844 176.524 
L 273.579844 176.524 
" style="fill: none; stroke: #000000; stroke-width: 0.6; stroke-linejoin: miter; stroke-linecap: square"/>
   </g>
   <g id="patch_4">
    <path d="M 35.974389 28425.411333 
L 83.597668 28425.411333 
L 83.597668 34.887093 
L 35.974389 34.887093 
z
" clip-path="url(#p70574d33b4)" style="fill: #ed8075; opacity: 0.75"/>
   </g>
   <g id="patch_5">
    <path d="M 164.512253 28425.411333 
L 212.135531 28425.411333 
L 212.135531 35.003114 
L 164.512253 35.003114 
z
" clip-path="url(#p70574d33b4)" style="fill: #ed8075; opacity: 0.75"/>
   </g>
   <g id="patch_6">
    <path d="M 86.104156 28425.411333 
L 133.727435 28425.411333 
L 133.727435 114.192731 
L 86.104156 114.192731 
z
" clip-path="url(#p70574d33b4)" style="fill: #5dade1; opacity: 0.75"/>
   </g>
   <g id="patch_7">
    <path d="M 214.64202 28425.411333 
L 262.265298 28425.411333 
L 262.265298 131.312799 
L 214.64202 131.312799 
z
" clip-path="url(#p70574d33b4)" style="fill: #5dade1; opacity: 0.75"/>
   </g>
  </g>
 </g>
 <defs>
  <clipPath id="p70574d33b4">
   <rect x="24.659844" y="7.2" width="248.92" height="169.324"/>
  </clipPath>
 </defs>
</svg>
