<?xml version="1.0" encoding="utf-8" standalone="no"?>
<!DOCTYPE svg PUBLIC "-//W3C//DTD SVG 1.1//EN"
  "http://www.w3.org/Graphics/SVG/1.1/DTD/svg11.dtd">
<svg xmlns:xlink="http://www.w3.org/1999/xlink" width="493.33375pt" height="495.05125pt" viewBox="0 0 493.33375 495.05125" xmlns="http://www.w3.org/2000/svg" version="1.1">
 <metadata>
  <rdf:RDF xmlns:dc="http://purl.org/dc/elements/1.1/" xmlns:cc="http://creativecommons.org/ns#" xmlns:rdf="http://www.w3.org/1999/02/22-rdf-syntax-ns#">
   <cc:Work>
    <dc:type rdf:resource="http://purl.org/dc/dcmitype/StillImage"/>
    <dc:date>2025-10-25T00:54:57.348781</dc:date>
    <dc:format>image/svg+xml</dc:format>
    <dc:creator>
     <cc:Agent>
      <dc:title>Matplotlib v3.9.2, https://matplotlib.org/</dc:title>
     </cc:Agent>
    </dc:creator>
   </cc:Work>
  </rdf:RDF>
 </metadata>
 <defs>
  <style type="text/css">*{stroke-linejoin: round; stroke-linecap: butt}</style>
 </defs>
 <g id="figure_1">
  <g id="patch_1">
   <path d="M 0 495.05125 
L 493.33375 495.05125 
L 493.33375 0 
L 0 0 
z
" style="fill: #ffffff"/>
  </g>
  <g id="axes_1">
   <g id="patch_2">
    <path d="M 39.73375 459.0525 
L 486.13375 459.0525 
L 486.13375 15.5325 
L 39.73375 15.5325 
z
" style="fill: #ffffff"/>
   </g>
   <g id="patch_3">
    <path d="M 454.248032 237.303202 
L 454.07663 218.522332 
L 454.076504 218.517608 
L 454.076525 218.517429 
L 454.076526 218.517983 
L 454.076533 218.517439 
L 454.076483 218.5176 
L 454.076531 218.517529 
L 454.076506 218.517532 
L 454.076435 218.51759 
L 454.076266 218.516851 
L 454.07654 218.517433 
L 454.07641 218.517506 
L 449.965147 209.281039 
L 449.963615 209.27768 
L 449.963634 209.277643 
L 449.963254 209.277177 
L 449.963516 209.277416 
L 441.864902 200.037507 
L 441.864935 200.03754 
L 429.784067 190.800217 
L 429.778766 190.796481 
L 393.656795 172.318535 
L 341.575801 153.834606 
L 82.971391 86.788039 
L 82.971456 86.788049 
L 82.971393 86.788015 
L 82.971395 86.78807 
L 82.971393 86.788187 
L 82.971389 86.788051 
L 82.97139 86.788049 
L 82.971389 86.788051 
L 82.971387 86.788079 
L 82.971367 86.788243 
L 82.971393 86.788036 
L 82.971394 86.788082 
L 82.971399 86.788102 
L 82.97139 86.78804 
L 82.971386 86.788067 
L 82.97141 86.788051 
L 82.971277 86.789008 
L 82.971383 86.788079 
L 82.971139 86.789669 
L 82.971169 86.78946 
L 82.971155 86.789547 
L 80.99924 100.122302 
L 77.61575 127.121943 
L 75.010355 154.158625 
L 73.127996 181.705424 
L 71.995981 209.48053 
L 71.619468 237.281798 
L 71.79087 256.062668 
L 71.790996 256.067392 
L 71.790975 256.067571 
L 71.790974 256.067017 
L 71.790967 256.067561 
L 71.791017 256.0674 
L 71.790969 256.067471 
L 71.790994 256.067468 
L 71.791065 256.06741 
L 71.791234 256.068149 
L 71.79096 256.067567 
L 71.79109 256.067494 
L 75.902353 265.303961 
L 75.903885 265.30732 
L 75.903866 265.307357 
L 75.904246 265.307823 
L 75.903984 265.307584 
L 84.002598 274.547493 
L 84.002565 274.54746 
L 96.083433 283.784783 
L 96.088734 283.788519 
L 132.210705 302.266465 
L 184.291699 320.750394 
L 442.896109 387.796961 
L 442.896044 387.796951 
L 442.896107 387.796985 
L 442.896105 387.79693 
L 442.896107 387.796813 
L 442.896111 387.796949 
L 442.89611 387.796951 
L 442.896111 387.796949 
L 442.896113 387.796921 
L 442.896133 387.796757 
L 442.896107 387.796964 
L 442.896106 387.796918 
L 442.896101 387.796898 
L 442.89611 387.79696 
L 442.896114 387.796933 
L 442.89609 387.796949 
L 442.896223 387.795992 
L 442.896117 387.796921 
L 442.896361 387.795331 
L 442.896331 387.79554 
L 442.896345 387.795453 
L 444.86826 374.462698 
L 448.25175 347.463057 
L 450.857145 320.426375 
L 452.739504 292.879576 
L 453.871519 265.10447 
z
" clip-path="url(#pb296932761)" style="fill: #0000ff; opacity: 0.3; stroke: #0000ff; stroke-linejoin: miter"/>
   </g>
   <g id="patch_4">
    <path d="M 73.20138 259.612638 
L 121.86526 288.553494 
L 442.24043 385.898417 
L 453.187825 219.441382 
L 422.887113 189.850887 
L 363.126767 167.755939 
L 83.054248 87.956019 
z
" clip-path="url(#pb296932761)" style="fill: #ff0000; opacity: 0.2; stroke: #ff0000; stroke-linejoin: miter"/>
   </g>
   <g id="matplotlib.axis_1">
    <g id="xtick_1">
     <g id="line2d_1">
      <defs>
       <path id="m445c13dc2a" d="M 0 0 
L 0 3.5 
" style="stroke: #000000; stroke-width: 0.8"/>
      </defs>
      <g>
       <use xlink:href="#m445c13dc2a" x="103.505179" y="459.0525" style="stroke: #000000; stroke-width: 0.8"/>
      </g>
     </g>
     <g id="text_1">
      <!-- −5.0 -->
      <g transform="translate(81.738304 482.7175) scale(0.24 -0.24)">
       <defs>
        <path id="TimesNewRomanPSMT-2212" d="M 3484 2000 
L 116 2000 
L 116 2256 
L 3484 2256 
L 3484 2000 
z
" transform="scale(0.015625)"/>
        <path id="TimesNewRomanPSMT-35" d="M 2778 4238 
L 2534 3706 
L 1259 3706 
L 981 3138 
Q 1809 3016 2294 2522 
Q 2709 2097 2709 1522 
Q 2709 1188 2573 903 
Q 2438 619 2231 419 
Q 2025 219 1772 97 
Q 1413 -75 1034 -75 
Q 653 -75 479 54 
Q 306 184 306 341 
Q 306 428 378 495 
Q 450 563 559 563 
Q 641 563 702 538 
Q 763 513 909 409 
Q 1144 247 1384 247 
Q 1750 247 2026 523 
Q 2303 800 2303 1197 
Q 2303 1581 2056 1914 
Q 1809 2247 1375 2428 
Q 1034 2569 447 2591 
L 1259 4238 
L 2778 4238 
z
" transform="scale(0.015625)"/>
        <path id="TimesNewRomanPSMT-2e" d="M 800 606 
Q 947 606 1047 504 
Q 1147 403 1147 259 
Q 1147 116 1045 14 
Q 944 -88 800 -88 
Q 656 -88 554 14 
Q 453 116 453 259 
Q 453 406 554 506 
Q 656 606 800 606 
z
" transform="scale(0.015625)"/>
        <path id="TimesNewRomanPSMT-30" d="M 231 2094 
Q 231 2819 450 3342 
Q 669 3866 1031 4122 
Q 1313 4325 1613 4325 
Q 2100 4325 2488 3828 
Q 2972 3213 2972 2159 
Q 2972 1422 2759 906 
Q 2547 391 2217 158 
Q 1888 -75 1581 -75 
Q 975 -75 572 641 
Q 231 1244 231 2094 
z
M 844 2016 
Q 844 1141 1059 588 
Q 1238 122 1591 122 
Q 1759 122 1940 273 
Q 2122 425 2216 781 
Q 2359 1319 2359 2297 
Q 2359 3022 2209 3506 
Q 2097 3866 1919 4016 
Q 1791 4119 1609 4119 
Q 1397 4119 1231 3928 
Q 1006 3669 925 3112 
Q 844 2556 844 2016 
z
" transform="scale(0.015625)"/>
       </defs>
       <use xlink:href="#TimesNewRomanPSMT-2212"/>
       <use xlink:href="#TimesNewRomanPSMT-35" x="56.396484"/>
       <use xlink:href="#TimesNewRomanPSMT-2e" x="106.396484"/>
       <use xlink:href="#TimesNewRomanPSMT-30" x="131.396484"/>
      </g>
     </g>
    </g>
    <g id="xtick_2">
     <g id="line2d_2">
      <g>
       <use xlink:href="#m445c13dc2a" x="183.219464" y="459.0525" style="stroke: #000000; stroke-width: 0.8"/>
      </g>
     </g>
     <g id="text_2">
      <!-- −2.5 -->
      <g transform="translate(161.452589 482.7175) scale(0.24 -0.24)">
       <defs>
        <path id="TimesNewRomanPSMT-32" d="M 2934 816 
L 2638 0 
L 138 0 
L 138 116 
Q 1241 1122 1691 1759 
Q 2141 2397 2141 2925 
Q 2141 3328 1894 3587 
Q 1647 3847 1303 3847 
Q 991 3847 742 3664 
Q 494 3481 375 3128 
L 259 3128 
Q 338 3706 661 4015 
Q 984 4325 1469 4325 
Q 1984 4325 2329 3994 
Q 2675 3663 2675 3213 
Q 2675 2891 2525 2569 
Q 2294 2063 1775 1497 
Q 997 647 803 472 
L 1909 472 
Q 2247 472 2383 497 
Q 2519 522 2628 598 
Q 2738 675 2819 816 
L 2934 816 
z
" transform="scale(0.015625)"/>
       </defs>
       <use xlink:href="#TimesNewRomanPSMT-2212"/>
       <use xlink:href="#TimesNewRomanPSMT-32" x="56.396484"/>
       <use xlink:href="#TimesNewRomanPSMT-2e" x="106.396484"/>
       <use xlink:href="#TimesNewRomanPSMT-35" x="131.396484"/>
      </g>
     </g>
    </g>
    <g id="xtick_3">
     <g id="line2d_3">
      <g>
       <use xlink:href="#m445c13dc2a" x="262.93375" y="459.0525" style="stroke: #000000; stroke-width: 0.8"/>
      </g>
     </g>
     <g id="text_3">
      <!-- 0.0 -->
      <g transform="translate(247.93375 482.7175) scale(0.24 -0.24)">
       <use xlink:href="#TimesNewRomanPSMT-30"/>
       <use xlink:href="#TimesNewRomanPSMT-2e" x="50"/>
       <use xlink:href="#TimesNewRomanPSMT-30" x="75"/>
      </g>
     </g>
    </g>
    <g id="xtick_4">
     <g id="line2d_4">
      <g>
       <use xlink:href="#m445c13dc2a" x="342.648036" y="459.0525" style="stroke: #000000; stroke-width: 0.8"/>
      </g>
     </g>
     <g id="text_4">
      <!-- 2.5 -->
      <g transform="translate(327.648036 482.7175) scale(0.24 -0.24)">
       <use xlink:href="#TimesNewRomanPSMT-32"/>
       <use xlink:href="#TimesNewRomanPSMT-2e" x="50"/>
       <use xlink:href="#TimesNewRomanPSMT-35" x="75"/>
      </g>
     </g>
    </g>
    <g id="xtick_5">
     <g id="line2d_5">
      <g>
       <use xlink:href="#m445c13dc2a" x="422.362321" y="459.0525" style="stroke: #000000; stroke-width: 0.8"/>
      </g>
     </g>
     <g id="text_5">
      <!-- 5.0 -->
      <g transform="translate(407.362321 482.7175) scale(0.24 -0.24)">
       <use xlink:href="#TimesNewRomanPSMT-35"/>
       <use xlink:href="#TimesNewRomanPSMT-2e" x="50"/>
       <use xlink:href="#TimesNewRomanPSMT-30" x="75"/>
      </g>
     </g>
    </g>
   </g>
   <g id="matplotlib.axis_2">
    <g id="ytick_1">
     <g id="line2d_6">
      <defs>
       <path id="mf04247dc70" d="M 0 0 
L -3.5 0 
" style="stroke: #000000; stroke-width: 0.8"/>
      </defs>
      <g>
       <use xlink:href="#mf04247dc70" x="39.73375" y="459.0525" style="stroke: #000000; stroke-width: 0.8"/>
      </g>
     </g>
     <g id="text_6">
      <!-- −3 -->
      <g transform="translate(7.2 467.385) scale(0.24 -0.24)">
       <defs>
        <path id="TimesNewRomanPSMT-33" d="M 325 3431 
Q 506 3859 782 4092 
Q 1059 4325 1472 4325 
Q 1981 4325 2253 3994 
Q 2459 3747 2459 3466 
Q 2459 3003 1878 2509 
Q 2269 2356 2469 2072 
Q 2669 1788 2669 1403 
Q 2669 853 2319 450 
Q 1863 -75 997 -75 
Q 569 -75 414 31 
Q 259 138 259 259 
Q 259 350 332 419 
Q 406 488 509 488 
Q 588 488 669 463 
Q 722 447 909 348 
Q 1097 250 1169 231 
Q 1284 197 1416 197 
Q 1734 197 1970 444 
Q 2206 691 2206 1028 
Q 2206 1275 2097 1509 
Q 2016 1684 1919 1775 
Q 1784 1900 1550 2001 
Q 1316 2103 1072 2103 
L 972 2103 
L 972 2197 
Q 1219 2228 1467 2375 
Q 1716 2522 1828 2728 
Q 1941 2934 1941 3181 
Q 1941 3503 1739 3701 
Q 1538 3900 1238 3900 
Q 753 3900 428 3381 
L 325 3431 
z
" transform="scale(0.015625)"/>
       </defs>
       <use xlink:href="#TimesNewRomanPSMT-2212"/>
       <use xlink:href="#TimesNewRomanPSMT-33" x="56.396484"/>
      </g>
     </g>
    </g>
    <g id="ytick_2">
     <g id="line2d_7">
      <g>
       <use xlink:href="#mf04247dc70" x="39.73375" y="385.1325" style="stroke: #000000; stroke-width: 0.8"/>
      </g>
     </g>
     <g id="text_7">
      <!-- −2 -->
      <g transform="translate(7.2 393.465) scale(0.24 -0.24)">
       <use xlink:href="#TimesNewRomanPSMT-2212"/>
       <use xlink:href="#TimesNewRomanPSMT-32" x="56.396484"/>
      </g>
     </g>
    </g>
    <g id="ytick_3">
     <g id="line2d_8">
      <g>
       <use xlink:href="#mf04247dc70" x="39.73375" y="311.2125" style="stroke: #000000; stroke-width: 0.8"/>
      </g>
     </g>
     <g id="text_8">
      <!-- −1 -->
      <g transform="translate(7.2 319.545) scale(0.24 -0.24)">
       <defs>
        <path id="TimesNewRomanPSMT-31" d="M 750 3822 
L 1781 4325 
L 1884 4325 
L 1884 747 
Q 1884 391 1914 303 
Q 1944 216 2037 169 
Q 2131 122 2419 116 
L 2419 0 
L 825 0 
L 825 116 
Q 1125 122 1212 167 
Q 1300 213 1334 289 
Q 1369 366 1369 747 
L 1369 3034 
Q 1369 3497 1338 3628 
Q 1316 3728 1258 3775 
Q 1200 3822 1119 3822 
Q 1003 3822 797 3725 
L 750 3822 
z
" transform="scale(0.015625)"/>
       </defs>
       <use xlink:href="#TimesNewRomanPSMT-2212"/>
       <use xlink:href="#TimesNewRomanPSMT-31" x="56.396484"/>
      </g>
     </g>
    </g>
    <g id="ytick_4">
     <g id="line2d_9">
      <g>
       <use xlink:href="#mf04247dc70" x="39.73375" y="237.2925" style="stroke: #000000; stroke-width: 0.8"/>
      </g>
     </g>
     <g id="text_9">
      <!-- 0 -->
      <g transform="translate(20.73375 245.625) scale(0.24 -0.24)">
       <use xlink:href="#TimesNewRomanPSMT-30"/>
      </g>
     </g>
    </g>
    <g id="ytick_5">
     <g id="line2d_10">
      <g>
       <use xlink:href="#mf04247dc70" x="39.73375" y="163.3725" style="stroke: #000000; stroke-width: 0.8"/>
      </g>
     </g>
     <g id="text_10">
      <!-- 1 -->
      <g transform="translate(20.73375 171.705) scale(0.24 -0.24)">
       <use xlink:href="#TimesNewRomanPSMT-31"/>
      </g>
     </g>
    </g>
    <g id="ytick_6">
     <g id="line2d_11">
      <g>
       <use xlink:href="#mf04247dc70" x="39.73375" y="89.4525" style="stroke: #000000; stroke-width: 0.8"/>
      </g>
     </g>
     <g id="text_11">
      <!-- 2 -->
      <g transform="translate(20.73375 97.785) scale(0.24 -0.24)">
       <use xlink:href="#TimesNewRomanPSMT-32"/>
      </g>
     </g>
    </g>
    <g id="ytick_7">
     <g id="line2d_12">
      <g>
       <use xlink:href="#mf04247dc70" x="39.73375" y="15.5325" style="stroke: #000000; stroke-width: 0.8"/>
      </g>
     </g>
     <g id="text_12">
      <!-- 3 -->
      <g transform="translate(20.73375 23.865) scale(0.24 -0.24)">
       <use xlink:href="#TimesNewRomanPSMT-33"/>
      </g>
     </g>
    </g>
   </g>
   <g id="patch_5">
    <path d="M 39.73375 459.0525 
L 39.73375 15.5325 
" style="fill: none; stroke: #000000; stroke-width: 0.8; stroke-linejoin: miter; stroke-linecap: square"/>
   </g>
   <g id="patch_6">
    <path d="M 486.13375 459.0525 
L 486.13375 15.5325 
" style="fill: none; stroke: #000000; stroke-width: 0.8; stroke-linejoin: miter; stroke-linecap: square"/>
   </g>
   <g id="patch_7">
    <path d="M 39.73375 459.0525 
L 486.13375 459.0525 
" style="fill: none; stroke: #000000; stroke-width: 0.8; stroke-linejoin: miter; stroke-linecap: square"/>
   </g>
   <g id="patch_8">
    <path d="M 39.73375 15.5325 
L 486.13375 15.5325 
" style="fill: none; stroke: #000000; stroke-width: 0.8; stroke-linejoin: miter; stroke-linecap: square"/>
   </g>
   <g id="PathCollection_1">
    <defs>
     <path id="m7141365780" d="M 0 1.118034 
C 0.296506 1.118034 0.580908 1.000231 0.790569 0.790569 
C 1.000231 0.580908 1.118034 0.296506 1.118034 0 
C 1.118034 -0.296506 1.000231 -0.580908 0.790569 -0.790569 
C 0.580908 -1.000231 0.296506 -1.118034 0 -1.118034 
C -0.296506 -1.118034 -0.580908 -1.000231 -0.790569 -0.790569 
C -1.000231 -0.580908 -1.118034 -0.296506 -1.118034 0 
C -1.118034 0.296506 -1.000231 0.580908 -0.790569 0.790569 
C -0.580908 1.000231 -0.296506 1.118034 0 1.118034 
z
" style="stroke: #0000ff"/>
    </defs>
    <g clip-path="url(#pb296932761)">
     <use xlink:href="#m7141365780" x="454.248032" y="237.303202" style="fill: #008000; stroke: #0000ff"/>
     <use xlink:href="#m7141365780" x="454.07663" y="218.522332" style="fill: #008000; stroke: #0000ff"/>
     <use xlink:href="#m7141365780" x="454.076504" y="218.517608" style="fill: #008000; stroke: #0000ff"/>
     <use xlink:href="#m7141365780" x="454.076525" y="218.517429" style="fill: #008000; stroke: #0000ff"/>
     <use xlink:href="#m7141365780" x="454.076526" y="218.517983" style="fill: #008000; stroke: #0000ff"/>
     <use xlink:href="#m7141365780" x="454.076533" y="218.517439" style="fill: #008000; stroke: #0000ff"/>
     <use xlink:href="#m7141365780" x="454.076483" y="218.5176" style="fill: #008000; stroke: #0000ff"/>
     <use xlink:href="#m7141365780" x="454.076531" y="218.517529" style="fill: #008000; stroke: #0000ff"/>
     <use xlink:href="#m7141365780" x="454.076506" y="218.517532" style="fill: #008000; stroke: #0000ff"/>
     <use xlink:href="#m7141365780" x="454.076435" y="218.51759" style="fill: #008000; stroke: #0000ff"/>
     <use xlink:href="#m7141365780" x="454.076266" y="218.516851" style="fill: #008000; stroke: #0000ff"/>
     <use xlink:href="#m7141365780" x="454.07654" y="218.517433" style="fill: #008000; stroke: #0000ff"/>
     <use xlink:href="#m7141365780" x="454.07641" y="218.517506" style="fill: #008000; stroke: #0000ff"/>
     <use xlink:href="#m7141365780" x="449.965147" y="209.281039" style="fill: #008000; stroke: #0000ff"/>
     <use xlink:href="#m7141365780" x="449.963615" y="209.27768" style="fill: #008000; stroke: #0000ff"/>
     <use xlink:href="#m7141365780" x="449.963634" y="209.277643" style="fill: #008000; stroke: #0000ff"/>
     <use xlink:href="#m7141365780" x="449.963254" y="209.277177" style="fill: #008000; stroke: #0000ff"/>
     <use xlink:href="#m7141365780" x="449.963516" y="209.277416" style="fill: #008000; stroke: #0000ff"/>
     <use xlink:href="#m7141365780" x="441.864902" y="200.037507" style="fill: #008000; stroke: #0000ff"/>
     <use xlink:href="#m7141365780" x="441.864935" y="200.03754" style="fill: #008000; stroke: #0000ff"/>
     <use xlink:href="#m7141365780" x="429.784067" y="190.800217" style="fill: #008000; stroke: #0000ff"/>
     <use xlink:href="#m7141365780" x="429.778766" y="190.796481" style="fill: #008000; stroke: #0000ff"/>
     <use xlink:href="#m7141365780" x="393.656795" y="172.318535" style="fill: #008000; stroke: #0000ff"/>
     <use xlink:href="#m7141365780" x="341.575801" y="153.834606" style="fill: #008000; stroke: #0000ff"/>
     <use xlink:href="#m7141365780" x="82.971391" y="86.788039" style="fill: #008000; stroke: #0000ff"/>
     <use xlink:href="#m7141365780" x="82.971456" y="86.788049" style="fill: #008000; stroke: #0000ff"/>
     <use xlink:href="#m7141365780" x="82.971393" y="86.788015" style="fill: #008000; stroke: #0000ff"/>
     <use xlink:href="#m7141365780" x="82.971395" y="86.78807" style="fill: #008000; stroke: #0000ff"/>
     <use xlink:href="#m7141365780" x="82.971393" y="86.788187" style="fill: #008000; stroke: #0000ff"/>
     <use xlink:href="#m7141365780" x="82.971389" y="86.788051" style="fill: #008000; stroke: #0000ff"/>
     <use xlink:href="#m7141365780" x="82.97139" y="86.788049" style="fill: #008000; stroke: #0000ff"/>
     <use xlink:href="#m7141365780" x="82.971389" y="86.788051" style="fill: #008000; stroke: #0000ff"/>
     <use xlink:href="#m7141365780" x="82.971387" y="86.788079" style="fill: #008000; stroke: #0000ff"/>
     <use xlink:href="#m7141365780" x="82.971367" y="86.788243" style="fill: #008000; stroke: #0000ff"/>
     <use xlink:href="#m7141365780" x="82.971393" y="86.788036" style="fill: #008000; stroke: #0000ff"/>
     <use xlink:href="#m7141365780" x="82.971394" y="86.788082" style="fill: #008000; stroke: #0000ff"/>
     <use xlink:href="#m7141365780" x="82.971399" y="86.788102" style="fill: #008000; stroke: #0000ff"/>
     <use xlink:href="#m7141365780" x="82.97139" y="86.78804" style="fill: #008000; stroke: #0000ff"/>
     <use xlink:href="#m7141365780" x="82.971386" y="86.788067" style="fill: #008000; stroke: #0000ff"/>
     <use xlink:href="#m7141365780" x="82.97141" y="86.788051" style="fill: #008000; stroke: #0000ff"/>
     <use xlink:href="#m7141365780" x="82.971277" y="86.789008" style="fill: #008000; stroke: #0000ff"/>
     <use xlink:href="#m7141365780" x="82.971383" y="86.788079" style="fill: #008000; stroke: #0000ff"/>
     <use xlink:href="#m7141365780" x="82.971139" y="86.789669" style="fill: #008000; stroke: #0000ff"/>
     <use xlink:href="#m7141365780" x="82.971169" y="86.78946" style="fill: #008000; stroke: #0000ff"/>
     <use xlink:href="#m7141365780" x="82.971155" y="86.789547" style="fill: #008000; stroke: #0000ff"/>
     <use xlink:href="#m7141365780" x="80.99924" y="100.122302" style="fill: #008000; stroke: #0000ff"/>
     <use xlink:href="#m7141365780" x="77.61575" y="127.121943" style="fill: #008000; stroke: #0000ff"/>
     <use xlink:href="#m7141365780" x="75.010355" y="154.158625" style="fill: #008000; stroke: #0000ff"/>
     <use xlink:href="#m7141365780" x="73.127996" y="181.705424" style="fill: #008000; stroke: #0000ff"/>
     <use xlink:href="#m7141365780" x="71.995981" y="209.48053" style="fill: #008000; stroke: #0000ff"/>
     <use xlink:href="#m7141365780" x="71.619468" y="237.281798" style="fill: #008000; stroke: #0000ff"/>
     <use xlink:href="#m7141365780" x="71.79087" y="256.062668" style="fill: #008000; stroke: #0000ff"/>
     <use xlink:href="#m7141365780" x="71.790996" y="256.067392" style="fill: #008000; stroke: #0000ff"/>
     <use xlink:href="#m7141365780" x="71.790975" y="256.067571" style="fill: #008000; stroke: #0000ff"/>
     <use xlink:href="#m7141365780" x="71.790974" y="256.067017" style="fill: #008000; stroke: #0000ff"/>
     <use xlink:href="#m7141365780" x="71.790967" y="256.067561" style="fill: #008000; stroke: #0000ff"/>
     <use xlink:href="#m7141365780" x="71.791017" y="256.0674" style="fill: #008000; stroke: #0000ff"/>
     <use xlink:href="#m7141365780" x="71.790969" y="256.067471" style="fill: #008000; stroke: #0000ff"/>
     <use xlink:href="#m7141365780" x="71.790994" y="256.067468" style="fill: #008000; stroke: #0000ff"/>
     <use xlink:href="#m7141365780" x="71.791065" y="256.06741" style="fill: #008000; stroke: #0000ff"/>
     <use xlink:href="#m7141365780" x="71.791234" y="256.068149" style="fill: #008000; stroke: #0000ff"/>
     <use xlink:href="#m7141365780" x="71.79096" y="256.067567" style="fill: #008000; stroke: #0000ff"/>
     <use xlink:href="#m7141365780" x="71.79109" y="256.067494" style="fill: #008000; stroke: #0000ff"/>
     <use xlink:href="#m7141365780" x="75.902353" y="265.303961" style="fill: #008000; stroke: #0000ff"/>
     <use xlink:href="#m7141365780" x="75.903885" y="265.30732" style="fill: #008000; stroke: #0000ff"/>
     <use xlink:href="#m7141365780" x="75.903866" y="265.307357" style="fill: #008000; stroke: #0000ff"/>
     <use xlink:href="#m7141365780" x="75.904246" y="265.307823" style="fill: #008000; stroke: #0000ff"/>
     <use xlink:href="#m7141365780" x="75.903984" y="265.307584" style="fill: #008000; stroke: #0000ff"/>
     <use xlink:href="#m7141365780" x="84.002598" y="274.547493" style="fill: #008000; stroke: #0000ff"/>
     <use xlink:href="#m7141365780" x="84.002565" y="274.54746" style="fill: #008000; stroke: #0000ff"/>
     <use xlink:href="#m7141365780" x="96.083433" y="283.784783" style="fill: #008000; stroke: #0000ff"/>
     <use xlink:href="#m7141365780" x="96.088734" y="283.788519" style="fill: #008000; stroke: #0000ff"/>
     <use xlink:href="#m7141365780" x="132.210705" y="302.266465" style="fill: #008000; stroke: #0000ff"/>
     <use xlink:href="#m7141365780" x="184.291699" y="320.750394" style="fill: #008000; stroke: #0000ff"/>
     <use xlink:href="#m7141365780" x="442.896109" y="387.796961" style="fill: #008000; stroke: #0000ff"/>
     <use xlink:href="#m7141365780" x="442.896044" y="387.796951" style="fill: #008000; stroke: #0000ff"/>
     <use xlink:href="#m7141365780" x="442.896107" y="387.796985" style="fill: #008000; stroke: #0000ff"/>
     <use xlink:href="#m7141365780" x="442.896105" y="387.79693" style="fill: #008000; stroke: #0000ff"/>
     <use xlink:href="#m7141365780" x="442.896107" y="387.796813" style="fill: #008000; stroke: #0000ff"/>
     <use xlink:href="#m7141365780" x="442.896111" y="387.796949" style="fill: #008000; stroke: #0000ff"/>
     <use xlink:href="#m7141365780" x="442.89611" y="387.796951" style="fill: #008000; stroke: #0000ff"/>
     <use xlink:href="#m7141365780" x="442.896111" y="387.796949" style="fill: #008000; stroke: #0000ff"/>
     <use xlink:href="#m7141365780" x="442.896113" y="387.796921" style="fill: #008000; stroke: #0000ff"/>
     <use xlink:href="#m7141365780" x="442.896133" y="387.796757" style="fill: #008000; stroke: #0000ff"/>
     <use xlink:href="#m7141365780" x="442.896107" y="387.796964" style="fill: #008000; stroke: #0000ff"/>
     <use xlink:href="#m7141365780" x="442.896106" y="387.796918" style="fill: #008000; stroke: #0000ff"/>
     <use xlink:href="#m7141365780" x="442.896101" y="387.796898" style="fill: #008000; stroke: #0000ff"/>
     <use xlink:href="#m7141365780" x="442.89611" y="387.79696" style="fill: #008000; stroke: #0000ff"/>
     <use xlink:href="#m7141365780" x="442.896114" y="387.796933" style="fill: #008000; stroke: #0000ff"/>
     <use xlink:href="#m7141365780" x="442.89609" y="387.796949" style="fill: #008000; stroke: #0000ff"/>
     <use xlink:href="#m7141365780" x="442.896223" y="387.795992" style="fill: #008000; stroke: #0000ff"/>
     <use xlink:href="#m7141365780" x="442.896117" y="387.796921" style="fill: #008000; stroke: #0000ff"/>
     <use xlink:href="#m7141365780" x="442.896361" y="387.795331" style="fill: #008000; stroke: #0000ff"/>
     <use xlink:href="#m7141365780" x="442.896331" y="387.79554" style="fill: #008000; stroke: #0000ff"/>
     <use xlink:href="#m7141365780" x="442.896345" y="387.795453" style="fill: #008000; stroke: #0000ff"/>
     <use xlink:href="#m7141365780" x="444.86826" y="374.462698" style="fill: #008000; stroke: #0000ff"/>
     <use xlink:href="#m7141365780" x="448.25175" y="347.463057" style="fill: #008000; stroke: #0000ff"/>
     <use xlink:href="#m7141365780" x="450.857145" y="320.426375" style="fill: #008000; stroke: #0000ff"/>
     <use xlink:href="#m7141365780" x="452.739504" y="292.879576" style="fill: #008000; stroke: #0000ff"/>
     <use xlink:href="#m7141365780" x="453.871519" y="265.10447" style="fill: #008000; stroke: #0000ff"/>
    </g>
   </g>
  </g>
 </g>
 <defs>
  <clipPath id="pb296932761">
   <rect x="39.73375" y="15.5325" width="446.4" height="443.52"/>
  </clipPath>
 </defs>
</svg>
