<?xml version="1.0" encoding="utf-8" standalone="no"?>
<!DOCTYPE svg PUBLIC "-//W3C//DTD SVG 1.1//EN"
  "http://www.w3.org/Graphics/SVG/1.1/DTD/svg11.dtd">
<svg xmlns:xlink="http://www.w3.org/1999/xlink" width="493.33375pt" height="495.05125pt" viewBox="0 0 493.33375 495.05125" xmlns="http://www.w3.org/2000/svg" version="1.1">
 <metadata>
  <rdf:RDF xmlns:dc="http://purl.org/dc/elements/1.1/" xmlns:cc="http://creativecommons.org/ns#" xmlns:rdf="http://www.w3.org/1999/02/22-rdf-syntax-ns#">
   <cc:Work>
    <dc:type rdf:resource="http://purl.org/dc/dcmitype/StillImage"/>
    <dc:date>2025-10-25T00:55:20.736322</dc:date>
    <dc:format>image/svg+xml</dc:format>
    <dc:creator>
     <cc:Agent>
      <dc:title>Matplotlib v3.9.2, https://matplotlib.org/</dc:title>
     </cc:Agent>
    </dc:creator>
   </cc:Work>
  </rdf:RDF>
 </metadata>
 <defs>
  <style type="text/css">*{stroke-linejoin: round; stroke-linecap: butt}</style>
 </defs>
 <g id="figure_1">
  <g id="patch_1">
   <path d="M 0 495.05125 
L 493.33375 495.05125 
L 493.33375 0 
L 0 0 
z
" style="fill: #ffffff"/>
  </g>
  <g id="axes_1">
   <g id="patch_2">
    <path d="M 39.73375 459.0525 
L 486.13375 459.0525 
L 486.13375 15.5325 
L 39.73375 15.5325 
z
" style="fill: #ffffff"/>
   </g>
   <g id="patch_3">
    <path d="M 431.928027 237.260213 
L 431.733028 218.477949 
L 431.733048 218.477974 
L 431.733002 218.47743 
L 431.733022 218.477491 
L 431.733036 218.47752 
L 431.733018 218.477438 
L 431.733042 218.477632 
L 431.73304 218.477976 
L 431.733041 218.477586 
L 431.733039 218.477511 
L 431.733042 218.477797 
L 431.733037 218.477544 
L 427.603594 209.239209 
L 427.602922 209.237746 
L 427.602835 209.237532 
L 427.602867 209.237641 
L 427.602526 209.237194 
L 419.486906 199.997519 
L 419.486843 199.997458 
L 407.386432 190.758406 
L 407.385099 190.757414 
L 371.224938 172.277561 
L 319.119896 153.797037 
L 104.968368 98.079971 
L 104.968341 98.079896 
L 104.968341 98.079899 
L 104.968343 98.08 
L 104.968333 98.080131 
L 104.968334 98.079946 
L 104.968341 98.080026 
L 104.968334 98.07995 
L 104.96834 98.079915 
L 104.968334 98.079955 
L 104.968337 98.079968 
L 104.968424 98.079946 
L 104.968339 98.079913 
L 104.968338 98.079923 
L 104.968304 98.080183 
L 104.968326 98.080027 
L 104.968333 98.079963 
L 104.968317 98.08005 
L 104.968218 98.080673 
L 104.968311 98.080085 
L 104.967898 98.082679 
L 102.225878 116.118698 
L 99.24466 139.898542 
L 96.938516 163.811989 
L 95.270881 188.211148 
L 94.273542 212.670485 
L 93.939464 237.303972 
L 94.134472 256.107051 
L 94.134452 256.107026 
L 94.134498 256.10757 
L 94.134478 256.107509 
L 94.134464 256.10748 
L 94.134482 256.107562 
L 94.134458 256.107368 
L 94.13446 256.107024 
L 94.134459 256.107414 
L 94.134461 256.107489 
L 94.134458 256.107203 
L 94.134463 256.107456 
L 98.263906 265.345791 
L 98.264578 265.347254 
L 98.264665 265.347468 
L 98.264633 265.347359 
L 98.264974 265.347806 
L 106.380594 274.587481 
L 106.380657 274.587542 
L 118.481068 283.826594 
L 118.482401 283.827586 
L 154.642562 302.307439 
L 206.747604 320.787963 
L 420.899132 376.505029 
L 420.899159 376.505104 
L 420.899159 376.505101 
L 420.899157 376.505 
L 420.899167 376.504869 
L 420.899166 376.505054 
L 420.899159 376.504974 
L 420.899166 376.50505 
L 420.89916 376.505085 
L 420.899166 376.505045 
L 420.899163 376.505032 
L 420.899076 376.505054 
L 420.899161 376.505087 
L 420.899162 376.505077 
L 420.899196 376.504817 
L 420.899174 376.504973 
L 420.899167 376.505037 
L 420.899183 376.50495 
L 420.899282 376.504327 
L 420.899189 376.504915 
L 420.899602 376.502321 
L 423.641622 358.466302 
L 426.62284 334.686458 
L 428.928984 310.773011 
L 430.596619 286.373852 
L 431.593958 261.914515 
z
" clip-path="url(#p0bd4c4f5db)" style="fill: #0000ff; opacity: 0.3; stroke: #0000ff; stroke-linejoin: miter"/>
   </g>
   <g id="patch_4">
    <path d="M 95.258993 256.728061 
L 154.697723 300.48065 
L 421.12346 375.104148 
L 431.510866 219.571428 
L 416.719902 199.604615 
L 352.423606 165.903372 
L 105.07417 98.364167 
z
" clip-path="url(#p0bd4c4f5db)" style="fill: #ff0000; opacity: 0.2; stroke: #ff0000; stroke-linejoin: miter"/>
   </g>
   <g id="matplotlib.axis_1">
    <g id="xtick_1">
     <g id="line2d_1">
      <defs>
       <path id="mdfc76cac85" d="M 0 0 
L 0 3.5 
" style="stroke: #000000; stroke-width: 0.8"/>
      </defs>
      <g>
       <use xlink:href="#mdfc76cac85" x="103.505179" y="459.0525" style="stroke: #000000; stroke-width: 0.8"/>
      </g>
     </g>
     <g id="text_1">
      <!-- −5.0 -->
      <g transform="translate(81.738304 482.7175) scale(0.24 -0.24)">
       <defs>
        <path id="TimesNewRomanPSMT-2212" d="M 3484 2000 
L 116 2000 
L 116 2256 
L 3484 2256 
L 3484 2000 
z
" transform="scale(0.015625)"/>
        <path id="TimesNewRomanPSMT-35" d="M 2778 4238 
L 2534 3706 
L 1259 3706 
L 981 3138 
Q 1809 3016 2294 2522 
Q 2709 2097 2709 1522 
Q 2709 1188 2573 903 
Q 2438 619 2231 419 
Q 2025 219 1772 97 
Q 1413 -75 1034 -75 
Q 653 -75 479 54 
Q 306 184 306 341 
Q 306 428 378 495 
Q 450 563 559 563 
Q 641 563 702 538 
Q 763 513 909 409 
Q 1144 247 1384 247 
Q 1750 247 2026 523 
Q 2303 800 2303 1197 
Q 2303 1581 2056 1914 
Q 1809 2247 1375 2428 
Q 1034 2569 447 2591 
L 1259 4238 
L 2778 4238 
z
" transform="scale(0.015625)"/>
        <path id="TimesNewRomanPSMT-2e" d="M 800 606 
Q 947 606 1047 504 
Q 1147 403 1147 259 
Q 1147 116 1045 14 
Q 944 -88 800 -88 
Q 656 -88 554 14 
Q 453 116 453 259 
Q 453 406 554 506 
Q 656 606 800 606 
z
" transform="scale(0.015625)"/>
        <path id="TimesNewRomanPSMT-30" d="M 231 2094 
Q 231 2819 450 3342 
Q 669 3866 1031 4122 
Q 1313 4325 1613 4325 
Q 2100 4325 2488 3828 
Q 2972 3213 2972 2159 
Q 2972 1422 2759 906 
Q 2547 391 2217 158 
Q 1888 -75 1581 -75 
Q 975 -75 572 641 
Q 231 1244 231 2094 
z
M 844 2016 
Q 844 1141 1059 588 
Q 1238 122 1591 122 
Q 1759 122 1940 273 
Q 2122 425 2216 781 
Q 2359 1319 2359 2297 
Q 2359 3022 2209 3506 
Q 2097 3866 1919 4016 
Q 1791 4119 1609 4119 
Q 1397 4119 1231 3928 
Q 1006 3669 925 3112 
Q 844 2556 844 2016 
z
" transform="scale(0.015625)"/>
       </defs>
       <use xlink:href="#TimesNewRomanPSMT-2212"/>
       <use xlink:href="#TimesNewRomanPSMT-35" x="56.396484"/>
       <use xlink:href="#TimesNewRomanPSMT-2e" x="106.396484"/>
       <use xlink:href="#TimesNewRomanPSMT-30" x="131.396484"/>
      </g>
     </g>
    </g>
    <g id="xtick_2">
     <g id="line2d_2">
      <g>
       <use xlink:href="#mdfc76cac85" x="183.219464" y="459.0525" style="stroke: #000000; stroke-width: 0.8"/>
      </g>
     </g>
     <g id="text_2">
      <!-- −2.5 -->
      <g transform="translate(161.452589 482.7175) scale(0.24 -0.24)">
       <defs>
        <path id="TimesNewRomanPSMT-32" d="M 2934 816 
L 2638 0 
L 138 0 
L 138 116 
Q 1241 1122 1691 1759 
Q 2141 2397 2141 2925 
Q 2141 3328 1894 3587 
Q 1647 3847 1303 3847 
Q 991 3847 742 3664 
Q 494 3481 375 3128 
L 259 3128 
Q 338 3706 661 4015 
Q 984 4325 1469 4325 
Q 1984 4325 2329 3994 
Q 2675 3663 2675 3213 
Q 2675 2891 2525 2569 
Q 2294 2063 1775 1497 
Q 997 647 803 472 
L 1909 472 
Q 2247 472 2383 497 
Q 2519 522 2628 598 
Q 2738 675 2819 816 
L 2934 816 
z
" transform="scale(0.015625)"/>
       </defs>
       <use xlink:href="#TimesNewRomanPSMT-2212"/>
       <use xlink:href="#TimesNewRomanPSMT-32" x="56.396484"/>
       <use xlink:href="#TimesNewRomanPSMT-2e" x="106.396484"/>
       <use xlink:href="#TimesNewRomanPSMT-35" x="131.396484"/>
      </g>
     </g>
    </g>
    <g id="xtick_3">
     <g id="line2d_3">
      <g>
       <use xlink:href="#mdfc76cac85" x="262.93375" y="459.0525" style="stroke: #000000; stroke-width: 0.8"/>
      </g>
     </g>
     <g id="text_3">
      <!-- 0.0 -->
      <g transform="translate(247.93375 482.7175) scale(0.24 -0.24)">
       <use xlink:href="#TimesNewRomanPSMT-30"/>
       <use xlink:href="#TimesNewRomanPSMT-2e" x="50"/>
       <use xlink:href="#TimesNewRomanPSMT-30" x="75"/>
      </g>
     </g>
    </g>
    <g id="xtick_4">
     <g id="line2d_4">
      <g>
       <use xlink:href="#mdfc76cac85" x="342.648036" y="459.0525" style="stroke: #000000; stroke-width: 0.8"/>
      </g>
     </g>
     <g id="text_4">
      <!-- 2.5 -->
      <g transform="translate(327.648036 482.7175) scale(0.24 -0.24)">
       <use xlink:href="#TimesNewRomanPSMT-32"/>
       <use xlink:href="#TimesNewRomanPSMT-2e" x="50"/>
       <use xlink:href="#TimesNewRomanPSMT-35" x="75"/>
      </g>
     </g>
    </g>
    <g id="xtick_5">
     <g id="line2d_5">
      <g>
       <use xlink:href="#mdfc76cac85" x="422.362321" y="459.0525" style="stroke: #000000; stroke-width: 0.8"/>
      </g>
     </g>
     <g id="text_5">
      <!-- 5.0 -->
      <g transform="translate(407.362321 482.7175) scale(0.24 -0.24)">
       <use xlink:href="#TimesNewRomanPSMT-35"/>
       <use xlink:href="#TimesNewRomanPSMT-2e" x="50"/>
       <use xlink:href="#TimesNewRomanPSMT-30" x="75"/>
      </g>
     </g>
    </g>
   </g>
   <g id="matplotlib.axis_2">
    <g id="ytick_1">
     <g id="line2d_6">
      <defs>
       <path id="m086e6b0fbf" d="M 0 0 
L -3.5 0 
" style="stroke: #000000; stroke-width: 0.8"/>
      </defs>
      <g>
       <use xlink:href="#m086e6b0fbf" x="39.73375" y="459.0525" style="stroke: #000000; stroke-width: 0.8"/>
      </g>
     </g>
     <g id="text_6">
      <!-- −3 -->
      <g transform="translate(7.2 467.385) scale(0.24 -0.24)">
       <defs>
        <path id="TimesNewRomanPSMT-33" d="M 325 3431 
Q 506 3859 782 4092 
Q 1059 4325 1472 4325 
Q 1981 4325 2253 3994 
Q 2459 3747 2459 3466 
Q 2459 3003 1878 2509 
Q 2269 2356 2469 2072 
Q 2669 1788 2669 1403 
Q 2669 853 2319 450 
Q 1863 -75 997 -75 
Q 569 -75 414 31 
Q 259 138 259 259 
Q 259 350 332 419 
Q 406 488 509 488 
Q 588 488 669 463 
Q 722 447 909 348 
Q 1097 250 1169 231 
Q 1284 197 1416 197 
Q 1734 197 1970 444 
Q 2206 691 2206 1028 
Q 2206 1275 2097 1509 
Q 2016 1684 1919 1775 
Q 1784 1900 1550 2001 
Q 1316 2103 1072 2103 
L 972 2103 
L 972 2197 
Q 1219 2228 1467 2375 
Q 1716 2522 1828 2728 
Q 1941 2934 1941 3181 
Q 1941 3503 1739 3701 
Q 1538 3900 1238 3900 
Q 753 3900 428 3381 
L 325 3431 
z
" transform="scale(0.015625)"/>
       </defs>
       <use xlink:href="#TimesNewRomanPSMT-2212"/>
       <use xlink:href="#TimesNewRomanPSMT-33" x="56.396484"/>
      </g>
     </g>
    </g>
    <g id="ytick_2">
     <g id="line2d_7">
      <g>
       <use xlink:href="#m086e6b0fbf" x="39.73375" y="385.1325" style="stroke: #000000; stroke-width: 0.8"/>
      </g>
     </g>
     <g id="text_7">
      <!-- −2 -->
      <g transform="translate(7.2 393.465) scale(0.24 -0.24)">
       <use xlink:href="#TimesNewRomanPSMT-2212"/>
       <use xlink:href="#TimesNewRomanPSMT-32" x="56.396484"/>
      </g>
     </g>
    </g>
    <g id="ytick_3">
     <g id="line2d_8">
      <g>
       <use xlink:href="#m086e6b0fbf" x="39.73375" y="311.2125" style="stroke: #000000; stroke-width: 0.8"/>
      </g>
     </g>
     <g id="text_8">
      <!-- −1 -->
      <g transform="translate(7.2 319.545) scale(0.24 -0.24)">
       <defs>
        <path id="TimesNewRomanPSMT-31" d="M 750 3822 
L 1781 4325 
L 1884 4325 
L 1884 747 
Q 1884 391 1914 303 
Q 1944 216 2037 169 
Q 2131 122 2419 116 
L 2419 0 
L 825 0 
L 825 116 
Q 1125 122 1212 167 
Q 1300 213 1334 289 
Q 1369 366 1369 747 
L 1369 3034 
Q 1369 3497 1338 3628 
Q 1316 3728 1258 3775 
Q 1200 3822 1119 3822 
Q 1003 3822 797 3725 
L 750 3822 
z
" transform="scale(0.015625)"/>
       </defs>
       <use xlink:href="#TimesNewRomanPSMT-2212"/>
       <use xlink:href="#TimesNewRomanPSMT-31" x="56.396484"/>
      </g>
     </g>
    </g>
    <g id="ytick_4">
     <g id="line2d_9">
      <g>
       <use xlink:href="#m086e6b0fbf" x="39.73375" y="237.2925" style="stroke: #000000; stroke-width: 0.8"/>
      </g>
     </g>
     <g id="text_9">
      <!-- 0 -->
      <g transform="translate(20.73375 245.625) scale(0.24 -0.24)">
       <use xlink:href="#TimesNewRomanPSMT-30"/>
      </g>
     </g>
    </g>
    <g id="ytick_5">
     <g id="line2d_10">
      <g>
       <use xlink:href="#m086e6b0fbf" x="39.73375" y="163.3725" style="stroke: #000000; stroke-width: 0.8"/>
      </g>
     </g>
     <g id="text_10">
      <!-- 1 -->
      <g transform="translate(20.73375 171.705) scale(0.24 -0.24)">
       <use xlink:href="#TimesNewRomanPSMT-31"/>
      </g>
     </g>
    </g>
    <g id="ytick_6">
     <g id="line2d_11">
      <g>
       <use xlink:href="#m086e6b0fbf" x="39.73375" y="89.4525" style="stroke: #000000; stroke-width: 0.8"/>
      </g>
     </g>
     <g id="text_11">
      <!-- 2 -->
      <g transform="translate(20.73375 97.785) scale(0.24 -0.24)">
       <use xlink:href="#TimesNewRomanPSMT-32"/>
      </g>
     </g>
    </g>
    <g id="ytick_7">
     <g id="line2d_12">
      <g>
       <use xlink:href="#m086e6b0fbf" x="39.73375" y="15.5325" style="stroke: #000000; stroke-width: 0.8"/>
      </g>
     </g>
     <g id="text_12">
      <!-- 3 -->
      <g transform="translate(20.73375 23.865) scale(0.24 -0.24)">
       <use xlink:href="#TimesNewRomanPSMT-33"/>
      </g>
     </g>
    </g>
   </g>
   <g id="patch_5">
    <path d="M 39.73375 459.0525 
L 39.73375 15.5325 
" style="fill: none; stroke: #000000; stroke-width: 0.8; stroke-linejoin: miter; stroke-linecap: square"/>
   </g>
   <g id="patch_6">
    <path d="M 486.13375 459.0525 
L 486.13375 15.5325 
" style="fill: none; stroke: #000000; stroke-width: 0.8; stroke-linejoin: miter; stroke-linecap: square"/>
   </g>
   <g id="patch_7">
    <path d="M 39.73375 459.0525 
L 486.13375 459.0525 
" style="fill: none; stroke: #000000; stroke-width: 0.8; stroke-linejoin: miter; stroke-linecap: square"/>
   </g>
   <g id="patch_8">
    <path d="M 39.73375 15.5325 
L 486.13375 15.5325 
" style="fill: none; stroke: #000000; stroke-width: 0.8; stroke-linejoin: miter; stroke-linecap: square"/>
   </g>
   <g id="PathCollection_1">
    <defs>
     <path id="m389c150e7e" d="M 0 1.118034 
C 0.296506 1.118034 0.580908 1.000231 0.790569 0.790569 
C 1.000231 0.580908 1.118034 0.296506 1.118034 0 
C 1.118034 -0.296506 1.000231 -0.580908 0.790569 -0.790569 
C 0.580908 -1.000231 0.296506 -1.118034 0 -1.118034 
C -0.296506 -1.118034 -0.580908 -1.000231 -0.790569 -0.790569 
C -1.000231 -0.580908 -1.118034 -0.296506 -1.118034 0 
C -1.118034 0.296506 -1.000231 0.580908 -0.790569 0.790569 
C -0.580908 1.000231 -0.296506 1.118034 0 1.118034 
z
" style="stroke: #0000ff"/>
    </defs>
    <g clip-path="url(#p0bd4c4f5db)">
     <use xlink:href="#m389c150e7e" x="431.928027" y="237.260213" style="fill: #008000; stroke: #0000ff"/>
     <use xlink:href="#m389c150e7e" x="431.733028" y="218.477949" style="fill: #008000; stroke: #0000ff"/>
     <use xlink:href="#m389c150e7e" x="431.733048" y="218.477974" style="fill: #008000; stroke: #0000ff"/>
     <use xlink:href="#m389c150e7e" x="431.733002" y="218.47743" style="fill: #008000; stroke: #0000ff"/>
     <use xlink:href="#m389c150e7e" x="431.733022" y="218.477491" style="fill: #008000; stroke: #0000ff"/>
     <use xlink:href="#m389c150e7e" x="431.733036" y="218.47752" style="fill: #008000; stroke: #0000ff"/>
     <use xlink:href="#m389c150e7e" x="431.733018" y="218.477438" style="fill: #008000; stroke: #0000ff"/>
     <use xlink:href="#m389c150e7e" x="431.733042" y="218.477632" style="fill: #008000; stroke: #0000ff"/>
     <use xlink:href="#m389c150e7e" x="431.73304" y="218.477976" style="fill: #008000; stroke: #0000ff"/>
     <use xlink:href="#m389c150e7e" x="431.733041" y="218.477586" style="fill: #008000; stroke: #0000ff"/>
     <use xlink:href="#m389c150e7e" x="431.733039" y="218.477511" style="fill: #008000; stroke: #0000ff"/>
     <use xlink:href="#m389c150e7e" x="431.733042" y="218.477797" style="fill: #008000; stroke: #0000ff"/>
     <use xlink:href="#m389c150e7e" x="431.733037" y="218.477544" style="fill: #008000; stroke: #0000ff"/>
     <use xlink:href="#m389c150e7e" x="427.603594" y="209.239209" style="fill: #008000; stroke: #0000ff"/>
     <use xlink:href="#m389c150e7e" x="427.602922" y="209.237746" style="fill: #008000; stroke: #0000ff"/>
     <use xlink:href="#m389c150e7e" x="427.602835" y="209.237532" style="fill: #008000; stroke: #0000ff"/>
     <use xlink:href="#m389c150e7e" x="427.602867" y="209.237641" style="fill: #008000; stroke: #0000ff"/>
     <use xlink:href="#m389c150e7e" x="427.602526" y="209.237194" style="fill: #008000; stroke: #0000ff"/>
     <use xlink:href="#m389c150e7e" x="419.486906" y="199.997519" style="fill: #008000; stroke: #0000ff"/>
     <use xlink:href="#m389c150e7e" x="419.486843" y="199.997458" style="fill: #008000; stroke: #0000ff"/>
     <use xlink:href="#m389c150e7e" x="407.386432" y="190.758406" style="fill: #008000; stroke: #0000ff"/>
     <use xlink:href="#m389c150e7e" x="407.385099" y="190.757414" style="fill: #008000; stroke: #0000ff"/>
     <use xlink:href="#m389c150e7e" x="371.224938" y="172.277561" style="fill: #008000; stroke: #0000ff"/>
     <use xlink:href="#m389c150e7e" x="319.119896" y="153.797037" style="fill: #008000; stroke: #0000ff"/>
     <use xlink:href="#m389c150e7e" x="104.968368" y="98.079971" style="fill: #008000; stroke: #0000ff"/>
     <use xlink:href="#m389c150e7e" x="104.968341" y="98.079896" style="fill: #008000; stroke: #0000ff"/>
     <use xlink:href="#m389c150e7e" x="104.968341" y="98.079899" style="fill: #008000; stroke: #0000ff"/>
     <use xlink:href="#m389c150e7e" x="104.968343" y="98.08" style="fill: #008000; stroke: #0000ff"/>
     <use xlink:href="#m389c150e7e" x="104.968333" y="98.080131" style="fill: #008000; stroke: #0000ff"/>
     <use xlink:href="#m389c150e7e" x="104.968334" y="98.079946" style="fill: #008000; stroke: #0000ff"/>
     <use xlink:href="#m389c150e7e" x="104.968341" y="98.080026" style="fill: #008000; stroke: #0000ff"/>
     <use xlink:href="#m389c150e7e" x="104.968334" y="98.07995" style="fill: #008000; stroke: #0000ff"/>
     <use xlink:href="#m389c150e7e" x="104.96834" y="98.079915" style="fill: #008000; stroke: #0000ff"/>
     <use xlink:href="#m389c150e7e" x="104.968334" y="98.079955" style="fill: #008000; stroke: #0000ff"/>
     <use xlink:href="#m389c150e7e" x="104.968337" y="98.079968" style="fill: #008000; stroke: #0000ff"/>
     <use xlink:href="#m389c150e7e" x="104.968424" y="98.079946" style="fill: #008000; stroke: #0000ff"/>
     <use xlink:href="#m389c150e7e" x="104.968339" y="98.079913" style="fill: #008000; stroke: #0000ff"/>
     <use xlink:href="#m389c150e7e" x="104.968338" y="98.079923" style="fill: #008000; stroke: #0000ff"/>
     <use xlink:href="#m389c150e7e" x="104.968304" y="98.080183" style="fill: #008000; stroke: #0000ff"/>
     <use xlink:href="#m389c150e7e" x="104.968326" y="98.080027" style="fill: #008000; stroke: #0000ff"/>
     <use xlink:href="#m389c150e7e" x="104.968333" y="98.079963" style="fill: #008000; stroke: #0000ff"/>
     <use xlink:href="#m389c150e7e" x="104.968317" y="98.08005" style="fill: #008000; stroke: #0000ff"/>
     <use xlink:href="#m389c150e7e" x="104.968218" y="98.080673" style="fill: #008000; stroke: #0000ff"/>
     <use xlink:href="#m389c150e7e" x="104.968311" y="98.080085" style="fill: #008000; stroke: #0000ff"/>
     <use xlink:href="#m389c150e7e" x="104.967898" y="98.082679" style="fill: #008000; stroke: #0000ff"/>
     <use xlink:href="#m389c150e7e" x="102.225878" y="116.118698" style="fill: #008000; stroke: #0000ff"/>
     <use xlink:href="#m389c150e7e" x="99.24466" y="139.898542" style="fill: #008000; stroke: #0000ff"/>
     <use xlink:href="#m389c150e7e" x="96.938516" y="163.811989" style="fill: #008000; stroke: #0000ff"/>
     <use xlink:href="#m389c150e7e" x="95.270881" y="188.211148" style="fill: #008000; stroke: #0000ff"/>
     <use xlink:href="#m389c150e7e" x="94.273542" y="212.670485" style="fill: #008000; stroke: #0000ff"/>
     <use xlink:href="#m389c150e7e" x="93.939464" y="237.303972" style="fill: #008000; stroke: #0000ff"/>
     <use xlink:href="#m389c150e7e" x="94.134472" y="256.107051" style="fill: #008000; stroke: #0000ff"/>
     <use xlink:href="#m389c150e7e" x="94.134452" y="256.107026" style="fill: #008000; stroke: #0000ff"/>
     <use xlink:href="#m389c150e7e" x="94.134498" y="256.10757" style="fill: #008000; stroke: #0000ff"/>
     <use xlink:href="#m389c150e7e" x="94.134478" y="256.107509" style="fill: #008000; stroke: #0000ff"/>
     <use xlink:href="#m389c150e7e" x="94.134464" y="256.10748" style="fill: #008000; stroke: #0000ff"/>
     <use xlink:href="#m389c150e7e" x="94.134482" y="256.107562" style="fill: #008000; stroke: #0000ff"/>
     <use xlink:href="#m389c150e7e" x="94.134458" y="256.107368" style="fill: #008000; stroke: #0000ff"/>
     <use xlink:href="#m389c150e7e" x="94.13446" y="256.107024" style="fill: #008000; stroke: #0000ff"/>
     <use xlink:href="#m389c150e7e" x="94.134459" y="256.107414" style="fill: #008000; stroke: #0000ff"/>
     <use xlink:href="#m389c150e7e" x="94.134461" y="256.107489" style="fill: #008000; stroke: #0000ff"/>
     <use xlink:href="#m389c150e7e" x="94.134458" y="256.107203" style="fill: #008000; stroke: #0000ff"/>
     <use xlink:href="#m389c150e7e" x="94.134463" y="256.107456" style="fill: #008000; stroke: #0000ff"/>
     <use xlink:href="#m389c150e7e" x="98.263906" y="265.345791" style="fill: #008000; stroke: #0000ff"/>
     <use xlink:href="#m389c150e7e" x="98.264578" y="265.347254" style="fill: #008000; stroke: #0000ff"/>
     <use xlink:href="#m389c150e7e" x="98.264665" y="265.347468" style="fill: #008000; stroke: #0000ff"/>
     <use xlink:href="#m389c150e7e" x="98.264633" y="265.347359" style="fill: #008000; stroke: #0000ff"/>
     <use xlink:href="#m389c150e7e" x="98.264974" y="265.347806" style="fill: #008000; stroke: #0000ff"/>
     <use xlink:href="#m389c150e7e" x="106.380594" y="274.587481" style="fill: #008000; stroke: #0000ff"/>
     <use xlink:href="#m389c150e7e" x="106.380657" y="274.587542" style="fill: #008000; stroke: #0000ff"/>
     <use xlink:href="#m389c150e7e" x="118.481068" y="283.826594" style="fill: #008000; stroke: #0000ff"/>
     <use xlink:href="#m389c150e7e" x="118.482401" y="283.827586" style="fill: #008000; stroke: #0000ff"/>
     <use xlink:href="#m389c150e7e" x="154.642562" y="302.307439" style="fill: #008000; stroke: #0000ff"/>
     <use xlink:href="#m389c150e7e" x="206.747604" y="320.787963" style="fill: #008000; stroke: #0000ff"/>
     <use xlink:href="#m389c150e7e" x="420.899132" y="376.505029" style="fill: #008000; stroke: #0000ff"/>
     <use xlink:href="#m389c150e7e" x="420.899159" y="376.505104" style="fill: #008000; stroke: #0000ff"/>
     <use xlink:href="#m389c150e7e" x="420.899159" y="376.505101" style="fill: #008000; stroke: #0000ff"/>
     <use xlink:href="#m389c150e7e" x="420.899157" y="376.505" style="fill: #008000; stroke: #0000ff"/>
     <use xlink:href="#m389c150e7e" x="420.899167" y="376.504869" style="fill: #008000; stroke: #0000ff"/>
     <use xlink:href="#m389c150e7e" x="420.899166" y="376.505054" style="fill: #008000; stroke: #0000ff"/>
     <use xlink:href="#m389c150e7e" x="420.899159" y="376.504974" style="fill: #008000; stroke: #0000ff"/>
     <use xlink:href="#m389c150e7e" x="420.899166" y="376.50505" style="fill: #008000; stroke: #0000ff"/>
     <use xlink:href="#m389c150e7e" x="420.89916" y="376.505085" style="fill: #008000; stroke: #0000ff"/>
     <use xlink:href="#m389c150e7e" x="420.899166" y="376.505045" style="fill: #008000; stroke: #0000ff"/>
     <use xlink:href="#m389c150e7e" x="420.899163" y="376.505032" style="fill: #008000; stroke: #0000ff"/>
     <use xlink:href="#m389c150e7e" x="420.899076" y="376.505054" style="fill: #008000; stroke: #0000ff"/>
     <use xlink:href="#m389c150e7e" x="420.899161" y="376.505087" style="fill: #008000; stroke: #0000ff"/>
     <use xlink:href="#m389c150e7e" x="420.899162" y="376.505077" style="fill: #008000; stroke: #0000ff"/>
     <use xlink:href="#m389c150e7e" x="420.899196" y="376.504817" style="fill: #008000; stroke: #0000ff"/>
     <use xlink:href="#m389c150e7e" x="420.899174" y="376.504973" style="fill: #008000; stroke: #0000ff"/>
     <use xlink:href="#m389c150e7e" x="420.899167" y="376.505037" style="fill: #008000; stroke: #0000ff"/>
     <use xlink:href="#m389c150e7e" x="420.899183" y="376.50495" style="fill: #008000; stroke: #0000ff"/>
     <use xlink:href="#m389c150e7e" x="420.899282" y="376.504327" style="fill: #008000; stroke: #0000ff"/>
     <use xlink:href="#m389c150e7e" x="420.899189" y="376.504915" style="fill: #008000; stroke: #0000ff"/>
     <use xlink:href="#m389c150e7e" x="420.899602" y="376.502321" style="fill: #008000; stroke: #0000ff"/>
     <use xlink:href="#m389c150e7e" x="423.641622" y="358.466302" style="fill: #008000; stroke: #0000ff"/>
     <use xlink:href="#m389c150e7e" x="426.62284" y="334.686458" style="fill: #008000; stroke: #0000ff"/>
     <use xlink:href="#m389c150e7e" x="428.928984" y="310.773011" style="fill: #008000; stroke: #0000ff"/>
     <use xlink:href="#m389c150e7e" x="430.596619" y="286.373852" style="fill: #008000; stroke: #0000ff"/>
     <use xlink:href="#m389c150e7e" x="431.593958" y="261.914515" style="fill: #008000; stroke: #0000ff"/>
    </g>
   </g>
  </g>
 </g>
 <defs>
  <clipPath id="p0bd4c4f5db">
   <rect x="39.73375" y="15.5325" width="446.4" height="443.52"/>
  </clipPath>
 </defs>
</svg>
